<svg xmlns="http://www.w3.org/2000/svg" width="4431.53" height="1954.78" viewBox="0 0 4431.53 1954.78"><g id="Layer_2" data-name="Layer 2"><g id="Слой_1" data-name="Слой 1"><g id="MAP"><rect id="BACKGROUND" x="1029.38" y="69.53" width="1758.39" height="1370.03" rx="106.94" fill="#d8e9f1"/><g id="CONTOURS"><path d="M2787.78,894.53H2262.9L1885.84,675.1a44.55,44.55,0,0,1-22.15-38.5V444.42" fill="none" stroke="#fff" stroke-miterlimit="10" stroke-width="10"/><line x1="1863.69" y1="387.46" x2="1863.69" y2="69.53" fill="none" stroke="#fff" stroke-miterlimit="10" stroke-width="10"/><line x1="1611.6" y1="898.34" x2="1611.6" y2="290.88" fill="none" stroke="#fff" stroke-miterlimit="10" stroke-width="10"/><path d="M1029.38,623.5h224.09a91.62,91.62,0,0,0,91.62-91.62v-239" fill="none" stroke="#fff" stroke-miterlimit="10" stroke-width="10"/><path d="M1345.08,350.92a64.79,64.79,0,0,0,64.79,64.79H1835" fill="none" stroke="#fff" stroke-miterlimit="10" stroke-width="10"/><path d="M1892,415.71h435.48a75.21,75.21,0,0,0,49.77-18.83l117.69-104L2729.1,85.71" fill="none" stroke="#fff" stroke-linecap="round" stroke-miterlimit="10" stroke-width="10"/><path d="M1892,415.71v.23a28.47,28.47,0,0,1-28.3,28.48h-.18A28.47,28.47,0,0,1,1835,415.94v-.23a28.46,28.46,0,0,1,28.47-28.24h.18A28.46,28.46,0,0,1,1892,415.71Z" fill="none" stroke="#fff" stroke-miterlimit="10" stroke-width="10"/><line x1="2787.78" y1="292.91" x2="2494.94" y2="292.91" fill="none" stroke="#fff" stroke-miterlimit="10" stroke-width="10"/><line x1="2787.78" y1="731.63" x2="2262.9" y2="731.63" fill="none" stroke="#fff" stroke-miterlimit="10" stroke-width="10"/><path d="M2262.9,69.53v979.86a47.3,47.3,0,0,1-47.3,47.29H1029.38" fill="none" stroke="#fff" stroke-miterlimit="10" stroke-width="10"/><line x1="2435.95" y1="1444.05" x2="2101.15" y2="1096.68" fill="none" stroke="#fff" stroke-miterlimit="10" stroke-width="10"/><line x1="1272.47" y1="894.45" x2="1151.25" y2="623.5" fill="none" stroke="#fff" stroke-miterlimit="10" stroke-width="10"/><line x1="1029.38" y1="292.91" x2="1863.51" y2="292.91" fill="none" stroke="#fff" stroke-miterlimit="10" stroke-width="10"/><line x1="2259.09" y1="67.29" x2="1893.44" y2="413.46" fill="none" stroke="#fff" stroke-miterlimit="10" stroke-width="5"/><line x1="2262.9" y1="101.49" x2="1933.38" y2="413.46" fill="none" stroke="#fff" stroke-miterlimit="10" stroke-width="5"/><line x1="2262.9" y1="139.3" x2="1973.31" y2="413.46" fill="none" stroke="#fff" stroke-miterlimit="10" stroke-width="5"/><line x1="2262.9" y1="177.1" x2="2013.24" y2="413.46" fill="none" stroke="#fff" stroke-miterlimit="10" stroke-width="5"/><line x1="2262.9" y1="252.71" x2="2093.1" y2="413.46" fill="none" stroke="#fff" stroke-miterlimit="10" stroke-width="5"/><line x1="2262.9" y1="214.91" x2="2053.17" y2="413.46" fill="none" stroke="#fff" stroke-miterlimit="10" stroke-width="5"/><line x1="2262.9" y1="290.52" x2="2133.03" y2="413.46" fill="none" stroke="#fff" stroke-miterlimit="10" stroke-width="5"/><line x1="2262.9" y1="328.32" x2="2172.97" y2="413.46" fill="none" stroke="#fff" stroke-miterlimit="10" stroke-width="5"/><line x1="2262.9" y1="366.13" x2="2212.9" y2="413.46" fill="none" stroke="#fff" stroke-miterlimit="10" stroke-width="5"/><line x1="1939.64" y1="67.29" x2="1863.69" y2="139.19" fill="none" stroke="#fff" stroke-miterlimit="10" stroke-width="5"/><line x1="1899.71" y1="67.29" x2="1863.69" y2="101.39" fill="none" stroke="#fff" stroke-miterlimit="10" stroke-width="5"/><line x1="1979.57" y1="67.29" x2="1863.69" y2="177" fill="none" stroke="#fff" stroke-miterlimit="10" stroke-width="5"/><line x1="2019.5" y1="67.29" x2="1863.51" y2="214.97" fill="none" stroke="#fff" stroke-miterlimit="10" stroke-width="5"/><line x1="2099.37" y1="67.29" x2="1863.51" y2="290.58" fill="none" stroke="#fff" stroke-miterlimit="10" stroke-width="5"/><line x1="2059.44" y1="67.29" x2="1863.51" y2="252.77" fill="none" stroke="#fff" stroke-miterlimit="10" stroke-width="5"/><line x1="2139.3" y1="67.29" x2="1863.69" y2="328.21" fill="none" stroke="#fff" stroke-miterlimit="10" stroke-width="5"/><line x1="2179.23" y1="67.29" x2="1863.69" y2="366.02" fill="none" stroke="#fff" stroke-miterlimit="10" stroke-width="5"/><line x1="2219.16" y1="67.29" x2="1877.25" y2="390.99" fill="none" stroke="#fff" stroke-miterlimit="10" stroke-width="5"/><line x1="2111.64" y1="1097.28" x2="1745.99" y2="1443.45" fill="none" stroke="#fff" stroke-miterlimit="10" stroke-width="5"/><line x1="2125.51" y1="1121.95" x2="1785.92" y2="1443.45" fill="none" stroke="#fff" stroke-miterlimit="10" stroke-width="5"/><line x1="2144.56" y1="1141.72" x2="1825.85" y2="1443.45" fill="none" stroke="#fff" stroke-miterlimit="10" stroke-width="5"/><line x1="2163.61" y1="1161.49" x2="1865.78" y2="1443.45" fill="none" stroke="#fff" stroke-miterlimit="10" stroke-width="5"/><line x1="2201.71" y1="1201.02" x2="1945.65" y2="1443.45" fill="none" stroke="#fff" stroke-miterlimit="10" stroke-width="5"/><line x1="2182.66" y1="1181.26" x2="1905.71" y2="1443.45" fill="none" stroke="#fff" stroke-miterlimit="10" stroke-width="5"/><line x1="2220.77" y1="1220.79" x2="1985.58" y2="1443.45" fill="none" stroke="#fff" stroke-miterlimit="10" stroke-width="5"/><line x1="2239.82" y1="1240.56" x2="2025.51" y2="1443.45" fill="none" stroke="#fff" stroke-miterlimit="10" stroke-width="5"/><line x1="2258.87" y1="1260.33" x2="2065.44" y2="1443.45" fill="none" stroke="#fff" stroke-miterlimit="10" stroke-width="5"/><line x1="2276.76" y1="1278.88" x2="2102.93" y2="1443.45" fill="none" stroke="#fff" stroke-miterlimit="10" stroke-width="5"/><line x1="2295.81" y1="1298.65" x2="2142.86" y2="1443.45" fill="none" stroke="#fff" stroke-miterlimit="10" stroke-width="5"/><line x1="2314.77" y1="1318.32" x2="2182.6" y2="1443.45" fill="none" stroke="#fff" stroke-miterlimit="10" stroke-width="5"/><line x1="2333.82" y1="1338.09" x2="2222.53" y2="1443.45" fill="none" stroke="#fff" stroke-miterlimit="10" stroke-width="5"/><line x1="2352.78" y1="1357.75" x2="2262.26" y2="1443.45" fill="none" stroke="#fff" stroke-miterlimit="10" stroke-width="5"/><line x1="2371.83" y1="1377.52" x2="2302.19" y2="1443.45" fill="none" stroke="#fff" stroke-miterlimit="10" stroke-width="5"/><line x1="2390.79" y1="1397.19" x2="2341.93" y2="1443.45" fill="none" stroke="#fff" stroke-miterlimit="10" stroke-width="5"/><line x1="2409.84" y1="1416.96" x2="2381.86" y2="1443.45" fill="none" stroke="#fff" stroke-miterlimit="10" stroke-width="5"/><line x1="1792.18" y1="1097.28" x2="1716.24" y2="1169.18" fill="none" stroke="#fff" stroke-miterlimit="10" stroke-width="5"/><line x1="1752.25" y1="1097.28" x2="1716.24" y2="1131.38" fill="none" stroke="#fff" stroke-miterlimit="10" stroke-width="5"/><line x1="1832.12" y1="1097.28" x2="1716.24" y2="1206.99" fill="none" stroke="#fff" stroke-miterlimit="10" stroke-width="5"/><line x1="1872.05" y1="1097.28" x2="1716.06" y2="1244.96" fill="none" stroke="#fff" stroke-miterlimit="10" stroke-width="5"/><line x1="1951.91" y1="1097.28" x2="1716.06" y2="1320.57" fill="none" stroke="#fff" stroke-miterlimit="10" stroke-width="5"/><line x1="1911.98" y1="1097.28" x2="1716.06" y2="1282.77" fill="none" stroke="#fff" stroke-miterlimit="10" stroke-width="5"/><line x1="1991.84" y1="1097.28" x2="1716.24" y2="1358.2" fill="none" stroke="#fff" stroke-miterlimit="10" stroke-width="5"/><line x1="2031.77" y1="1097.28" x2="1716.24" y2="1396.01" fill="none" stroke="#fff" stroke-miterlimit="10" stroke-width="5"/><line x1="2071.71" y1="1097.28" x2="1716.24" y2="1433.81" fill="none" stroke="#fff" stroke-miterlimit="10" stroke-width="5"/><path d="M1718.17,1439.56,1716,950.19a57.48,57.48,0,0,0-57.48-56.66H1028.46" fill="none" stroke="#fff" stroke-miterlimit="10" stroke-width="10"/></g><g id="PATTERN"><circle cx="1098.84" cy="382.4" r="5.23" fill="#98c8db"/><circle cx="1131.8" cy="382.4" r="5.23" fill="#98c8db"/><circle cx="1164.76" cy="382.4" r="5.23" fill="#98c8db"/><circle cx="1197.71" cy="382.4" r="5.23" fill="#98c8db"/><circle cx="1230.67" cy="382.4" r="5.23" fill="#98c8db"/><circle cx="1263.62" cy="382.4" r="5.23" fill="#98c8db"/><circle cx="1065.89" cy="382.4" r="5.23" fill="#98c8db"/><circle cx="1082.37" cy="399.57" r="5.23" fill="#98c8db"/><circle cx="1115.32" cy="399.57" r="5.23" fill="#98c8db"/><circle cx="1148.28" cy="399.57" r="5.23" fill="#98c8db"/><circle cx="1181.23" cy="399.57" r="5.23" fill="#98c8db"/><circle cx="1214.19" cy="399.57" r="5.23" fill="#98c8db"/><circle cx="1247.15" cy="399.57" r="5.23" fill="#98c8db"/><circle cx="1280.1" cy="399.57" r="5.23" fill="#98c8db"/><circle cx="1049.41" cy="399.57" r="5.23" fill="#98c8db"/><circle cx="1098.84" cy="416.74" r="5.23" fill="#98c8db"/><circle cx="1131.8" cy="416.74" r="5.23" fill="#98c8db"/><circle cx="1164.76" cy="416.74" r="5.23" fill="#98c8db"/><circle cx="1197.71" cy="416.74" r="5.23" fill="#98c8db"/><circle cx="1230.67" cy="416.74" r="5.23" fill="#98c8db"/><circle cx="1263.62" cy="416.74" r="5.23" fill="#98c8db"/><circle cx="1296.58" cy="416.74" r="5.23" fill="#98c8db"/><circle cx="1296.58" cy="382.4" r="5.23" fill="#98c8db"/><circle cx="1065.89" cy="416.74" r="5.23" fill="#98c8db"/><circle cx="1082.37" cy="433.91" r="5.23" fill="#98c8db"/><circle cx="1115.32" cy="433.91" r="5.23" fill="#98c8db"/><circle cx="1148.28" cy="433.91" r="5.23" fill="#98c8db"/><circle cx="1181.23" cy="433.91" r="5.23" fill="#98c8db"/><circle cx="1214.19" cy="433.91" r="5.23" fill="#98c8db"/><circle cx="1247.15" cy="433.91" r="5.23" fill="#98c8db"/><circle cx="1280.1" cy="433.91" r="5.23" fill="#98c8db"/><circle cx="1049.41" cy="433.91" r="5.23" fill="#98c8db"/><circle cx="1098.84" cy="451.08" r="5.23" fill="#98c8db"/><circle cx="1131.8" cy="451.08" r="5.23" fill="#98c8db"/><circle cx="1164.76" cy="451.08" r="5.23" fill="#98c8db"/><circle cx="1197.71" cy="451.08" r="5.23" fill="#98c8db"/><circle cx="1230.67" cy="451.08" r="5.23" fill="#98c8db"/><circle cx="1263.62" cy="451.08" r="5.23" fill="#98c8db"/><circle cx="1296.58" cy="451.08" r="5.23" fill="#98c8db"/><circle cx="1065.89" cy="451.08" r="5.23" fill="#98c8db"/><circle cx="1082.37" cy="468.25" r="5.23" fill="#98c8db"/><circle cx="1115.32" cy="468.25" r="5.23" fill="#98c8db"/><circle cx="1148.28" cy="468.25" r="5.23" fill="#98c8db"/><circle cx="1181.23" cy="468.25" r="5.23" fill="#98c8db"/><circle cx="1214.19" cy="468.25" r="5.23" fill="#98c8db"/><circle cx="1247.15" cy="468.25" r="5.23" fill="#98c8db"/><circle cx="1280.1" cy="468.25" r="5.23" fill="#98c8db"/><circle cx="1049.41" cy="468.25" r="5.23" fill="#98c8db"/><circle cx="1098.84" cy="485.42" r="5.23" fill="#98c8db"/><circle cx="1131.8" cy="485.42" r="5.23" fill="#98c8db"/><circle cx="1164.76" cy="485.42" r="5.23" fill="#98c8db"/><circle cx="1197.71" cy="485.42" r="5.23" fill="#98c8db"/><circle cx="1230.67" cy="485.42" r="5.23" fill="#98c8db"/><circle cx="1263.62" cy="485.42" r="5.23" fill="#98c8db"/><circle cx="1296.58" cy="485.42" r="5.23" fill="#98c8db"/><circle cx="1065.89" cy="485.42" r="5.23" fill="#98c8db"/><circle cx="1082.37" cy="502.59" r="5.23" fill="#98c8db"/><circle cx="1115.32" cy="502.59" r="5.23" fill="#98c8db"/><circle cx="1148.28" cy="502.59" r="5.23" fill="#98c8db"/><circle cx="1181.23" cy="502.59" r="5.23" fill="#98c8db"/><circle cx="1214.19" cy="502.59" r="5.23" fill="#98c8db"/><circle cx="1247.15" cy="502.59" r="5.23" fill="#98c8db"/><circle cx="1280.1" cy="502.59" r="5.23" fill="#98c8db"/><circle cx="1049.41" cy="502.59" r="5.23" fill="#98c8db"/><circle cx="1098.84" cy="519.77" r="5.23" fill="#98c8db"/><circle cx="1131.8" cy="519.77" r="5.23" fill="#98c8db"/><circle cx="1164.76" cy="519.77" r="5.23" fill="#98c8db"/><circle cx="1197.71" cy="519.77" r="5.23" fill="#98c8db"/><circle cx="1230.67" cy="519.77" r="5.23" fill="#98c8db"/><circle cx="1263.62" cy="519.77" r="5.23" fill="#98c8db"/><circle cx="1296.58" cy="519.77" r="5.23" fill="#98c8db"/><circle cx="1065.89" cy="519.77" r="5.23" fill="#98c8db"/><circle cx="1082.37" cy="536.94" r="5.23" fill="#98c8db"/><circle cx="1115.32" cy="536.94" r="5.23" fill="#98c8db"/><circle cx="1148.28" cy="536.94" r="5.23" fill="#98c8db"/><circle cx="1181.23" cy="536.94" r="5.23" fill="#98c8db"/><circle cx="1214.19" cy="536.94" r="5.23" fill="#98c8db"/><circle cx="1247.15" cy="536.94" r="5.23" fill="#98c8db"/><circle cx="1280.1" cy="536.94" r="5.23" fill="#98c8db"/><circle cx="1313.76" cy="399.57" r="5.23" fill="#98c8db"/><circle cx="1313.76" cy="433.91" r="5.23" fill="#98c8db"/><circle cx="1082.37" cy="330" r="5.23" fill="#98c8db"/><circle cx="1115.32" cy="330" r="5.23" fill="#98c8db"/><circle cx="1148.28" cy="330" r="5.23" fill="#98c8db"/><circle cx="1181.23" cy="330" r="5.23" fill="#98c8db"/><circle cx="1214.19" cy="330" r="5.23" fill="#98c8db"/><circle cx="1247.15" cy="330" r="5.23" fill="#98c8db"/><circle cx="1280.1" cy="330" r="5.23" fill="#98c8db"/><circle cx="1049.41" cy="330" r="5.23" fill="#98c8db"/><circle cx="1098.84" cy="347.17" r="5.23" fill="#98c8db"/><circle cx="1131.8" cy="347.17" r="5.23" fill="#98c8db"/><circle cx="1164.76" cy="347.17" r="5.23" fill="#98c8db"/><circle cx="1197.71" cy="347.17" r="5.23" fill="#98c8db"/><circle cx="1230.67" cy="347.17" r="5.23" fill="#98c8db"/><circle cx="1263.62" cy="347.17" r="5.23" fill="#98c8db"/><circle cx="1296.58" cy="347.17" r="5.23" fill="#98c8db"/><circle cx="1065.89" cy="347.17" r="5.23" fill="#98c8db"/><circle cx="1082.37" cy="364.34" r="5.23" fill="#98c8db"/><circle cx="1115.32" cy="364.34" r="5.23" fill="#98c8db"/><circle cx="1148.28" cy="364.34" r="5.23" fill="#98c8db"/><circle cx="1181.23" cy="364.34" r="5.23" fill="#98c8db"/><circle cx="1214.19" cy="364.34" r="5.23" fill="#98c8db"/><circle cx="1247.15" cy="364.34" r="5.23" fill="#98c8db"/><circle cx="1280.1" cy="364.34" r="5.23" fill="#98c8db"/><circle cx="1049.41" cy="364.34" r="5.23" fill="#98c8db"/><circle cx="1313.76" cy="330" r="5.23" fill="#98c8db"/><circle cx="1313.76" cy="364.34" r="5.23" fill="#98c8db"/><circle cx="1313.76" cy="468.25" r="5.23" fill="#98c8db"/><circle cx="1313.76" cy="502.59" r="5.23" fill="#98c8db"/><circle cx="1313.76" cy="536.94" r="5.23" fill="#98c8db"/><circle cx="1049.41" cy="536.94" r="5.23" fill="#98c8db"/><circle cx="1098.84" cy="554.11" r="5.23" fill="#98c8db"/><circle cx="1131.8" cy="554.11" r="5.23" fill="#98c8db"/><circle cx="1164.76" cy="554.11" r="5.23" fill="#98c8db"/><circle cx="1197.71" cy="554.11" r="5.23" fill="#98c8db"/><circle cx="1230.67" cy="554.11" r="5.23" fill="#98c8db"/><circle cx="1263.62" cy="554.11" r="5.23" fill="#98c8db"/><circle cx="1296.58" cy="554.11" r="5.23" fill="#98c8db"/><circle cx="1065.89" cy="554.11" r="5.23" fill="#98c8db"/><circle cx="1082.37" cy="572.05" r="5.23" fill="#98c8db"/><circle cx="1115.32" cy="572.05" r="5.23" fill="#98c8db"/><circle cx="1148.28" cy="572.05" r="5.23" fill="#98c8db"/><circle cx="1181.23" cy="572.05" r="5.23" fill="#98c8db"/><circle cx="1214.19" cy="572.05" r="5.23" fill="#98c8db"/><circle cx="1247.15" cy="572.05" r="5.23" fill="#98c8db"/><circle cx="1280.1" cy="572.05" r="5.23" fill="#98c8db"/><circle cx="1049.41" cy="572.05" r="5.23" fill="#98c8db"/><circle cx="1098.84" cy="589.13" r="5.23" fill="#98c8db"/><circle cx="1131.8" cy="589.13" r="5.23" fill="#98c8db"/><circle cx="1164.76" cy="589.13" r="5.23" fill="#98c8db"/><circle cx="1197.71" cy="589.13" r="5.23" fill="#98c8db"/><circle cx="1230.67" cy="589.13" r="5.23" fill="#98c8db"/><circle cx="1263.62" cy="589.13" r="5.23" fill="#98c8db"/><circle cx="1065.89" cy="589.13" r="5.23" fill="#98c8db"/><circle cx="2345.95" cy="813.64" r="5.23" fill="#98c8db"/><circle cx="2378.91" cy="813.64" r="5.23" fill="#98c8db"/><circle cx="2411.86" cy="813.64" r="5.23" fill="#98c8db"/><circle cx="2444.82" cy="813.64" r="5.23" fill="#98c8db"/><circle cx="2477.77" cy="813.64" r="5.23" fill="#98c8db"/><circle cx="2510.73" cy="813.64" r="5.23" fill="#98c8db"/><circle cx="2312.99" cy="813.64" r="5.23" fill="#98c8db"/><circle cx="2329.47" cy="830.81" r="5.23" fill="#98c8db"/><circle cx="2362.43" cy="830.81" r="5.23" fill="#98c8db"/><circle cx="2395.38" cy="830.81" r="5.23" fill="#98c8db"/><circle cx="2428.34" cy="830.81" r="5.23" fill="#98c8db"/><circle cx="2461.3" cy="830.81" r="5.23" fill="#98c8db"/><circle cx="2494.25" cy="830.81" r="5.23" fill="#98c8db"/><circle cx="2527.21" cy="830.81" r="5.23" fill="#98c8db"/><circle cx="2296.52" cy="830.81" r="5.23" fill="#98c8db"/><circle cx="2345.95" cy="847.98" r="5.23" fill="#98c8db"/><circle cx="2378.91" cy="847.98" r="5.23" fill="#98c8db"/><circle cx="2411.86" cy="847.98" r="5.23" fill="#98c8db"/><circle cx="2444.82" cy="847.98" r="5.23" fill="#98c8db"/><circle cx="2477.77" cy="847.98" r="5.23" fill="#98c8db"/><circle cx="2510.73" cy="847.98" r="5.23" fill="#98c8db"/><circle cx="2543.69" cy="847.98" r="5.23" fill="#98c8db"/><circle cx="2543.69" cy="813.64" r="5.23" fill="#98c8db"/><circle cx="2312.99" cy="847.98" r="5.23" fill="#98c8db"/><circle cx="2329.47" cy="865.15" r="5.23" fill="#98c8db"/><circle cx="2362.43" cy="865.15" r="5.23" fill="#98c8db"/><circle cx="2395.38" cy="865.15" r="5.23" fill="#98c8db"/><circle cx="2428.34" cy="865.15" r="5.23" fill="#98c8db"/><circle cx="2461.3" cy="865.15" r="5.23" fill="#98c8db"/><circle cx="2494.25" cy="865.15" r="5.23" fill="#98c8db"/><circle cx="2527.21" cy="865.15" r="5.23" fill="#98c8db"/><circle cx="2296.52" cy="865.15" r="5.23" fill="#98c8db"/><circle cx="2560.87" cy="830.81" r="5.23" fill="#98c8db"/><circle cx="2560.87" cy="865.15" r="5.23" fill="#98c8db"/><circle cx="2329.47" cy="761.24" r="5.23" fill="#98c8db"/><circle cx="2362.43" cy="761.24" r="5.23" fill="#98c8db"/><circle cx="2395.38" cy="761.24" r="5.23" fill="#98c8db"/><circle cx="2428.34" cy="761.24" r="5.23" fill="#98c8db"/><circle cx="2461.3" cy="761.24" r="5.23" fill="#98c8db"/><circle cx="2494.25" cy="761.24" r="5.23" fill="#98c8db"/><circle cx="2527.21" cy="761.24" r="5.23" fill="#98c8db"/><circle cx="2296.52" cy="761.24" r="5.23" fill="#98c8db"/><circle cx="2345.95" cy="778.41" r="5.23" fill="#98c8db"/><circle cx="2378.91" cy="778.41" r="5.23" fill="#98c8db"/><circle cx="2411.86" cy="778.41" r="5.23" fill="#98c8db"/><circle cx="2444.82" cy="778.41" r="5.23" fill="#98c8db"/><circle cx="2477.77" cy="778.41" r="5.23" fill="#98c8db"/><circle cx="2510.73" cy="778.41" r="5.23" fill="#98c8db"/><circle cx="2543.69" cy="778.41" r="5.23" fill="#98c8db"/><circle cx="2312.99" cy="778.41" r="5.23" fill="#98c8db"/><circle cx="2329.47" cy="795.58" r="5.23" fill="#98c8db"/><circle cx="2362.43" cy="795.58" r="5.23" fill="#98c8db"/><circle cx="2395.38" cy="795.58" r="5.23" fill="#98c8db"/><circle cx="2428.34" cy="795.58" r="5.23" fill="#98c8db"/><circle cx="2461.3" cy="795.58" r="5.23" fill="#98c8db"/><circle cx="2494.25" cy="795.58" r="5.23" fill="#98c8db"/><circle cx="2527.21" cy="795.58" r="5.23" fill="#98c8db"/><circle cx="2296.52" cy="795.58" r="5.23" fill="#98c8db"/><circle cx="2560.87" cy="761.24" r="5.23" fill="#98c8db"/><circle cx="2560.87" cy="795.58" r="5.23" fill="#98c8db"/><circle cx="2610.75" cy="813.64" r="5.23" fill="#98c8db"/><circle cx="2643.71" cy="813.64" r="5.23" fill="#98c8db"/><circle cx="2676.66" cy="813.64" r="5.23" fill="#98c8db"/><circle cx="2709.62" cy="813.64" r="5.23" fill="#98c8db"/><circle cx="2742.58" cy="813.64" r="5.23" fill="#98c8db"/><circle cx="2577.8" cy="813.64" r="5.23" fill="#98c8db"/><circle cx="2594.27" cy="830.81" r="5.23" fill="#98c8db"/><circle cx="2627.23" cy="830.81" r="5.23" fill="#98c8db"/><circle cx="2660.19" cy="830.81" r="5.23" fill="#98c8db"/><circle cx="2693.14" cy="830.81" r="5.23" fill="#98c8db"/><circle cx="2726.1" cy="830.81" r="5.23" fill="#98c8db"/><circle cx="2759.05" cy="830.81" r="5.23" fill="#98c8db"/><circle cx="2610.75" cy="847.98" r="5.23" fill="#98c8db"/><circle cx="2643.71" cy="847.98" r="5.23" fill="#98c8db"/><circle cx="2676.66" cy="847.98" r="5.23" fill="#98c8db"/><circle cx="2709.62" cy="847.98" r="5.23" fill="#98c8db"/><circle cx="2742.58" cy="847.98" r="5.23" fill="#98c8db"/><circle cx="2577.8" cy="847.98" r="5.23" fill="#98c8db"/><circle cx="2594.27" cy="865.15" r="5.23" fill="#98c8db"/><circle cx="2627.23" cy="865.15" r="5.23" fill="#98c8db"/><circle cx="2660.19" cy="865.15" r="5.23" fill="#98c8db"/><circle cx="2693.14" cy="865.15" r="5.23" fill="#98c8db"/><circle cx="2726.1" cy="865.15" r="5.23" fill="#98c8db"/><circle cx="2759.05" cy="865.15" r="5.23" fill="#98c8db"/><circle cx="2594.27" cy="761.24" r="5.23" fill="#98c8db"/><circle cx="2627.23" cy="761.24" r="5.23" fill="#98c8db"/><circle cx="2660.19" cy="761.24" r="5.23" fill="#98c8db"/><circle cx="2693.14" cy="761.24" r="5.23" fill="#98c8db"/><circle cx="2726.1" cy="761.24" r="5.23" fill="#98c8db"/><circle cx="2759.05" cy="761.24" r="5.23" fill="#98c8db"/><circle cx="2610.75" cy="778.41" r="5.23" fill="#98c8db"/><circle cx="2643.71" cy="778.41" r="5.23" fill="#98c8db"/><circle cx="2676.66" cy="778.41" r="5.23" fill="#98c8db"/><circle cx="2709.62" cy="778.41" r="5.23" fill="#98c8db"/><circle cx="2742.58" cy="778.41" r="5.23" fill="#98c8db"/><circle cx="2577.8" cy="778.41" r="5.23" fill="#98c8db"/><circle cx="2594.27" cy="795.58" r="5.23" fill="#98c8db"/><circle cx="2627.23" cy="795.58" r="5.23" fill="#98c8db"/><circle cx="2660.19" cy="795.58" r="5.23" fill="#98c8db"/><circle cx="2693.14" cy="795.58" r="5.23" fill="#98c8db"/><circle cx="2726.1" cy="795.58" r="5.23" fill="#98c8db"/><circle cx="2759.05" cy="795.58" r="5.23" fill="#98c8db"/></g><g id="_2_BUILDING" data-name="2 BUILDING"><path d="M2555.13,1064.47c0,24.56,44.48,105,44.48,105s44.48-80.47,44.48-105a44.48,44.48,0,0,0-89,0Zm30.79.67a13.69,13.69,0,1,1,13.69,13.67A13.69,13.69,0,0,1,2585.92,1065.14Z" fill="#ffc200"/><rect x="2643.48" y="1289.57" width="143.07" height="78.77" transform="translate(5430.03 2657.92) rotate(-180)" fill="#bddce8"/><polygon points="2565.96 1217.23 2709.03 1217.23 2786.55 1289.57 2643.48 1289.57 2565.96 1217.23" fill="#98c8db"/><polygon points="2488.35 1289.57 2565.87 1217.23 2643.48 1289.57 2643.48 1368.34 2721 1440.68 2488.35 1440.68 2488.35 1289.57" fill="#fff"/><polygon points="2643.48 1368.34 2786.55 1368.34 2864.07 1440.68 2721 1440.68 2643.48 1368.34" fill="#98c8db"/><rect x="2567.64" y="1282" width="12.94" height="12.94" transform="translate(5148.21 2576.93) rotate(-180)" fill="#f3b304"/><rect x="2548.53" y="1282" width="12.94" height="12.94" transform="translate(5109.99 2576.93) rotate(-180)" fill="#f3b304"/><rect x="2567.64" y="1300.4" width="12.94" height="12.94" transform="translate(5148.21 2613.74) rotate(-180)" fill="#f3b304"/><rect x="2548.53" y="1300.4" width="12.94" height="12.94" transform="translate(5109.99 2613.74) rotate(-180)" fill="#f3b304"/><rect x="2567.64" y="1354.57" width="12.94" height="12.94" transform="translate(5148.21 2722.08) rotate(-180)" fill="#98c8db"/><rect x="2548.53" y="1354.57" width="12.94" height="12.94" transform="translate(5109.99 2722.08) rotate(-180)" fill="#98c8db"/><rect x="2567.64" y="1372.97" width="12.94" height="12.94" transform="translate(5148.21 2758.88) rotate(-180)" fill="#98c8db"/><rect x="2548.53" y="1372.97" width="12.94" height="12.94" transform="translate(5109.99 2758.88) rotate(-180)" fill="#98c8db"/></g><g id="_1_BUILDING" data-name="1 BUILDING"><polygon points="1353.12 173.03 1243.36 208.69 1243.36 287.29 1128.21 287.29 1128.21 208.69 1237.97 173.03 1353.12 173.03" fill="#98c8db"/><polygon points="1243.36 287.3 1243.36 208.69 1352.17 173.03 1461.93 208.69 1461.93 287.3 1243.36 287.3" fill="#fff"/><path d="M1278.23,218.86h149.64a3.48,3.48,0,0,1,3.48,3.48v65a0,0,0,0,1,0,0H1274.75a0,0,0,0,1,0,0v-65A3.48,3.48,0,0,1,1278.23,218.86Z" fill="#98c8db"/><line x1="1274.75" y1="231.57" x2="1431.36" y2="231.57" fill="none" stroke="#fff" stroke-miterlimit="10" stroke-width="3"/><line x1="1274.75" y1="246.26" x2="1431.36" y2="246.26" fill="none" stroke="#fff" stroke-miterlimit="10" stroke-width="3"/><line x1="1274.75" y1="260.96" x2="1431.36" y2="260.96" fill="none" stroke="#fff" stroke-miterlimit="10" stroke-width="3"/><line x1="1274.75" y1="275.66" x2="1431.36" y2="275.66" fill="none" stroke="#fff" stroke-miterlimit="10" stroke-width="3"/><path d="M1351.16,0A41.21,41.21,0,0,0,1310,41.2c0,22.75,41.21,97.29,41.21,97.29s41.2-74.54,41.2-97.29A41.21,41.21,0,0,0,1351.16,0Zm0,54.49a12.68,12.68,0,1,1,12.67-12.67A12.66,12.66,0,0,1,1351.16,54.49Z" fill="#ffc200"/><rect x="1029.38" y="243.61" width="31.46" height="43.68" fill="#a74602"/><rect x="1060.84" y="243.61" width="65.2" height="43.68" fill="#f3b304"/><rect x="1126.04" y="243.61" width="19.15" height="43.68" fill="#a74602"/><rect x="1145.19" y="243.61" width="64.75" height="43.68" fill="#f3b304"/><rect x="1087.6" y="209.26" width="28.03" height="34.35" fill="#a74602"/><rect x="1115.62" y="209.26" width="57.46" height="34.35" fill="#f3b304"/></g><g id="YELLOW_LINE" data-name="YELLOW LINE"><circle cx="2139.83" cy="817.83" r="68.5" fill="#fff" opacity="0.5"/><circle cx="2139.83" cy="817.83" r="68.5" fill="none" stroke="#f3b304" stroke-miterlimit="10" stroke-width="5"/><path d="M1345.09,298.52v53.53a63.66,63.66,0,0,0,63.65,63.66H1835v.05a28.66,28.66,0,0,0,28.65,28.66h0V637.16a42.38,42.38,0,0,0,21,36.58L2138,821.63" fill="none" stroke="#f3b304" stroke-linejoin="round" stroke-width="5"/><polygon points="2094.41 842.88 2174.45 842.88 2137.2 767.7 2137.2 818.52 2094.41 842.88" fill="#f3b304"/></g></g><g id="CHARACTER"><g id="PATTERN-2" data-name="PATTERN"><circle cx="3310.29" cy="1859.88" r="5.45" fill="#cee4ed"/><circle cx="3344.63" cy="1859.88" r="5.45" fill="#cee4ed"/><circle cx="3378.96" cy="1859.88" r="5.45" fill="#cee4ed"/><circle cx="3413.3" cy="1859.88" r="5.45" fill="#cee4ed"/><circle cx="3447.64" cy="1859.88" r="5.45" fill="#cee4ed"/><circle cx="3481.98" cy="1859.88" r="5.45" fill="#cee4ed"/><circle cx="3516.31" cy="1859.88" r="5.45" fill="#cee4ed"/><circle cx="3104.27" cy="1859.88" r="5.45" fill="#cee4ed"/><circle cx="3138.61" cy="1859.88" r="5.45" fill="#cee4ed"/><circle cx="3172.94" cy="1859.88" r="5.45" fill="#cee4ed"/><circle cx="3207.28" cy="1859.88" r="5.45" fill="#cee4ed"/><circle cx="3241.62" cy="1859.88" r="5.45" fill="#cee4ed"/><circle cx="3275.95" cy="1859.88" r="5.45" fill="#cee4ed"/><circle cx="3293.12" cy="1877.77" r="5.45" fill="#cee4ed"/><circle cx="3327.46" cy="1877.77" r="5.45" fill="#cee4ed"/><circle cx="3361.8" cy="1877.77" r="5.45" fill="#cee4ed"/><circle cx="3396.13" cy="1877.77" r="5.45" fill="#cee4ed"/><circle cx="3430.47" cy="1877.77" r="5.45" fill="#cee4ed"/><circle cx="3464.81" cy="1877.77" r="5.45" fill="#cee4ed"/><circle cx="3499.14" cy="1877.77" r="5.45" fill="#cee4ed"/><circle cx="3087.1" cy="1877.77" r="5.45" fill="#cee4ed"/><circle cx="3121.44" cy="1877.77" r="5.45" fill="#cee4ed"/><circle cx="3155.77" cy="1877.77" r="5.45" fill="#cee4ed"/><circle cx="3190.11" cy="1877.77" r="5.45" fill="#cee4ed"/><circle cx="3224.45" cy="1877.77" r="5.45" fill="#cee4ed"/><circle cx="3258.79" cy="1877.77" r="5.45" fill="#cee4ed"/><circle cx="3310.29" cy="1895.66" r="5.45" fill="#cee4ed"/><circle cx="3344.63" cy="1895.66" r="5.45" fill="#cee4ed"/><circle cx="3378.96" cy="1895.66" r="5.45" fill="#cee4ed"/><circle cx="3413.3" cy="1895.66" r="5.45" fill="#cee4ed"/><circle cx="3447.64" cy="1895.66" r="5.45" fill="#cee4ed"/><circle cx="3481.98" cy="1895.66" r="5.45" fill="#cee4ed"/><circle cx="3516.31" cy="1895.66" r="5.45" fill="#cee4ed"/><circle cx="3069.93" cy="1895.66" r="5.45" fill="#cee4ed"/><circle cx="3104.27" cy="1895.66" r="5.45" fill="#cee4ed"/><circle cx="3138.61" cy="1895.66" r="5.45" fill="#cee4ed"/><circle cx="3172.94" cy="1895.66" r="5.45" fill="#cee4ed"/><circle cx="3207.28" cy="1895.66" r="5.45" fill="#cee4ed"/><circle cx="3241.62" cy="1895.66" r="5.45" fill="#cee4ed"/><circle cx="3275.95" cy="1895.66" r="5.45" fill="#cee4ed"/><circle cx="3293.12" cy="1913.55" r="5.45" fill="#cee4ed"/><circle cx="3327.46" cy="1913.55" r="5.45" fill="#cee4ed"/><circle cx="3361.8" cy="1913.55" r="5.45" fill="#cee4ed"/><circle cx="3396.13" cy="1913.55" r="5.45" fill="#cee4ed"/><circle cx="3430.47" cy="1913.55" r="5.45" fill="#cee4ed"/><circle cx="3464.81" cy="1913.55" r="5.45" fill="#cee4ed"/><circle cx="3499.14" cy="1913.55" r="5.45" fill="#cee4ed"/><circle cx="3087.1" cy="1913.55" r="5.45" fill="#cee4ed"/><circle cx="3052.76" cy="1913.55" r="5.45" fill="#cee4ed"/><circle cx="3121.44" cy="1913.55" r="5.45" fill="#cee4ed"/><circle cx="3155.77" cy="1913.55" r="5.45" fill="#cee4ed"/><circle cx="3190.11" cy="1913.55" r="5.45" fill="#cee4ed"/><circle cx="3224.45" cy="1913.55" r="5.45" fill="#cee4ed"/><circle cx="3258.79" cy="1913.55" r="5.45" fill="#cee4ed"/><circle cx="3310.29" cy="1931.44" r="5.45" fill="#cee4ed"/><circle cx="3344.63" cy="1931.44" r="5.45" fill="#cee4ed"/><circle cx="3378.96" cy="1931.44" r="5.45" fill="#cee4ed"/><circle cx="3413.3" cy="1931.44" r="5.45" fill="#cee4ed"/><circle cx="3447.64" cy="1931.44" r="5.45" fill="#cee4ed"/><circle cx="3481.98" cy="1931.44" r="5.45" fill="#cee4ed"/><circle cx="3516.31" cy="1931.44" r="5.45" fill="#cee4ed"/><circle cx="3104.27" cy="1931.44" r="5.45" fill="#cee4ed"/><circle cx="3069.93" cy="1931.44" r="5.45" fill="#cee4ed"/><circle cx="3035.6" cy="1931.44" r="5.45" fill="#cee4ed"/><circle cx="3138.61" cy="1931.44" r="5.45" fill="#cee4ed"/><circle cx="3172.94" cy="1931.44" r="5.45" fill="#cee4ed"/><circle cx="3207.28" cy="1931.44" r="5.45" fill="#cee4ed"/><circle cx="3241.62" cy="1931.44" r="5.45" fill="#cee4ed"/><circle cx="3275.95" cy="1931.44" r="5.45" fill="#cee4ed"/><circle cx="3293.12" cy="1949.33" r="5.45" fill="#cee4ed"/><circle cx="3327.46" cy="1949.33" r="5.45" fill="#cee4ed"/><circle cx="3361.8" cy="1949.33" r="5.45" fill="#cee4ed"/><circle cx="3396.13" cy="1949.33" r="5.45" fill="#cee4ed"/><circle cx="3430.47" cy="1949.33" r="5.45" fill="#cee4ed"/><circle cx="3464.81" cy="1949.33" r="5.45" fill="#cee4ed"/><circle cx="3499.14" cy="1949.33" r="5.45" fill="#cee4ed"/><circle cx="3121.44" cy="1949.33" r="5.45" fill="#cee4ed"/><circle cx="3087.1" cy="1949.33" r="5.45" fill="#cee4ed"/><circle cx="3052.76" cy="1949.33" r="5.45" fill="#cee4ed"/><circle cx="3017.98" cy="1949.33" r="5.45" fill="#cee4ed"/><circle cx="3155.77" cy="1949.33" r="5.45" fill="#cee4ed"/><circle cx="3190.11" cy="1949.33" r="5.45" fill="#cee4ed"/><circle cx="3224.45" cy="1949.33" r="5.45" fill="#cee4ed"/><circle cx="3258.79" cy="1949.33" r="5.45" fill="#cee4ed"/><circle cx="3825.31" cy="1859.88" r="5.45" fill="#cee4ed"/><circle cx="3859.65" cy="1859.88" r="5.45" fill="#cee4ed"/><circle cx="3893.98" cy="1859.88" r="5.45" fill="#cee4ed"/><circle cx="3928.32" cy="1859.88" r="5.45" fill="#cee4ed"/><circle cx="3962.66" cy="1859.88" r="5.45" fill="#cee4ed"/><circle cx="3996.99" cy="1859.88" r="5.45" fill="#cee4ed"/><circle cx="4031.33" cy="1859.88" r="5.45" fill="#cee4ed"/><circle cx="3584.95" cy="1859.88" r="5.45" fill="#cee4ed"/><circle cx="3550.61" cy="1859.88" r="5.45" fill="#cee4ed"/><circle cx="3619.29" cy="1859.88" r="5.45" fill="#cee4ed"/><circle cx="3653.63" cy="1859.88" r="5.45" fill="#cee4ed"/><circle cx="3687.96" cy="1859.88" r="5.45" fill="#cee4ed"/><circle cx="3722.3" cy="1859.88" r="5.45" fill="#cee4ed"/><circle cx="3756.64" cy="1859.88" r="5.45" fill="#cee4ed"/><circle cx="3790.97" cy="1859.88" r="5.45" fill="#cee4ed"/><circle cx="3808.14" cy="1877.77" r="5.45" fill="#cee4ed"/><circle cx="3842.48" cy="1877.77" r="5.45" fill="#cee4ed"/><circle cx="3876.81" cy="1877.77" r="5.45" fill="#cee4ed"/><circle cx="3911.15" cy="1877.77" r="5.45" fill="#cee4ed"/><circle cx="3945.49" cy="1877.77" r="5.45" fill="#cee4ed"/><circle cx="3979.83" cy="1877.77" r="5.45" fill="#cee4ed"/><circle cx="4014.16" cy="1877.77" r="5.45" fill="#cee4ed"/><circle cx="3567.78" cy="1877.77" r="5.45" fill="#cee4ed"/><circle cx="3533.45" cy="1877.77" r="5.45" fill="#cee4ed"/><circle cx="3602.12" cy="1877.77" r="5.45" fill="#cee4ed"/><circle cx="3636.46" cy="1877.77" r="5.45" fill="#cee4ed"/><circle cx="3670.79" cy="1877.77" r="5.45" fill="#cee4ed"/><circle cx="3705.13" cy="1877.77" r="5.45" fill="#cee4ed"/><circle cx="3739.47" cy="1877.77" r="5.45" fill="#cee4ed"/><circle cx="3773.8" cy="1877.77" r="5.45" fill="#cee4ed"/><circle cx="3825.31" cy="1895.66" r="5.45" fill="#cee4ed"/><circle cx="3859.65" cy="1895.66" r="5.45" fill="#cee4ed"/><circle cx="3893.98" cy="1895.66" r="5.45" fill="#cee4ed"/><circle cx="3928.32" cy="1895.66" r="5.45" fill="#cee4ed"/><circle cx="3962.66" cy="1895.66" r="5.45" fill="#cee4ed"/><circle cx="3996.99" cy="1895.66" r="5.45" fill="#cee4ed"/><circle cx="4031.33" cy="1895.66" r="5.45" fill="#cee4ed"/><circle cx="3584.95" cy="1895.66" r="5.45" fill="#cee4ed"/><circle cx="3550.61" cy="1895.66" r="5.45" fill="#cee4ed"/><circle cx="3619.29" cy="1895.66" r="5.45" fill="#cee4ed"/><circle cx="3653.63" cy="1895.66" r="5.45" fill="#cee4ed"/><circle cx="3687.96" cy="1895.66" r="5.45" fill="#cee4ed"/><circle cx="3722.3" cy="1895.66" r="5.45" fill="#cee4ed"/><circle cx="3756.64" cy="1895.66" r="5.45" fill="#cee4ed"/><circle cx="3790.97" cy="1895.66" r="5.45" fill="#cee4ed"/><circle cx="3808.14" cy="1913.55" r="5.45" fill="#cee4ed"/><circle cx="3842.48" cy="1913.55" r="5.45" fill="#cee4ed"/><circle cx="3876.81" cy="1913.55" r="5.45" fill="#cee4ed"/><circle cx="3911.15" cy="1913.55" r="5.45" fill="#cee4ed"/><circle cx="3945.49" cy="1913.55" r="5.45" fill="#cee4ed"/><circle cx="3979.83" cy="1913.55" r="5.45" fill="#cee4ed"/><circle cx="4014.16" cy="1913.55" r="5.45" fill="#cee4ed"/><circle cx="3567.78" cy="1913.55" r="5.45" fill="#cee4ed"/><circle cx="3533.45" cy="1913.55" r="5.45" fill="#cee4ed"/><circle cx="3602.12" cy="1913.55" r="5.45" fill="#cee4ed"/><circle cx="3636.46" cy="1913.55" r="5.45" fill="#cee4ed"/><circle cx="3670.79" cy="1913.55" r="5.45" fill="#cee4ed"/><circle cx="3705.13" cy="1913.55" r="5.45" fill="#cee4ed"/><circle cx="3739.47" cy="1913.55" r="5.45" fill="#cee4ed"/><circle cx="3773.8" cy="1913.55" r="5.45" fill="#cee4ed"/><circle cx="3825.31" cy="1931.44" r="5.45" fill="#cee4ed"/><circle cx="3859.65" cy="1931.44" r="5.45" fill="#cee4ed"/><circle cx="3893.98" cy="1931.44" r="5.45" fill="#cee4ed"/><circle cx="3928.32" cy="1931.44" r="5.45" fill="#cee4ed"/><circle cx="3962.66" cy="1931.44" r="5.45" fill="#cee4ed"/><circle cx="3996.99" cy="1931.44" r="5.45" fill="#cee4ed"/><circle cx="4031.33" cy="1931.44" r="5.45" fill="#cee4ed"/><circle cx="3584.95" cy="1931.44" r="5.45" fill="#cee4ed"/><circle cx="3550.61" cy="1931.44" r="5.45" fill="#cee4ed"/><circle cx="3619.29" cy="1931.44" r="5.45" fill="#cee4ed"/><circle cx="3653.63" cy="1931.44" r="5.45" fill="#cee4ed"/><circle cx="3687.96" cy="1931.44" r="5.45" fill="#cee4ed"/><circle cx="3722.3" cy="1931.44" r="5.45" fill="#cee4ed"/><circle cx="3756.64" cy="1931.44" r="5.45" fill="#cee4ed"/><circle cx="3790.97" cy="1931.44" r="5.45" fill="#cee4ed"/><circle cx="3808.14" cy="1949.33" r="5.45" fill="#cee4ed"/><circle cx="3842.48" cy="1949.33" r="5.45" fill="#cee4ed"/><circle cx="3876.81" cy="1949.33" r="5.45" fill="#cee4ed"/><circle cx="3911.15" cy="1949.33" r="5.45" fill="#cee4ed"/><circle cx="3945.49" cy="1949.33" r="5.45" fill="#cee4ed"/><circle cx="3979.83" cy="1949.33" r="5.45" fill="#cee4ed"/><circle cx="4014.16" cy="1949.33" r="5.45" fill="#cee4ed"/><circle cx="3567.78" cy="1949.33" r="5.45" fill="#cee4ed"/><circle cx="3533.45" cy="1949.33" r="5.45" fill="#cee4ed"/><circle cx="3602.12" cy="1949.33" r="5.45" fill="#cee4ed"/><circle cx="3636.46" cy="1949.33" r="5.45" fill="#cee4ed"/><circle cx="3670.79" cy="1949.33" r="5.45" fill="#cee4ed"/><circle cx="3705.13" cy="1949.33" r="5.45" fill="#cee4ed"/><circle cx="3739.47" cy="1949.33" r="5.45" fill="#cee4ed"/><circle cx="3773.8" cy="1949.33" r="5.45" fill="#cee4ed"/><circle cx="4065.19" cy="1859.88" r="5.45" fill="#cee4ed"/><circle cx="4099.52" cy="1859.88" r="5.45" fill="#cee4ed"/><circle cx="4133.86" cy="1859.88" r="5.45" fill="#cee4ed"/><circle cx="4168.2" cy="1859.88" r="5.45" fill="#cee4ed"/><circle cx="4202.53" cy="1859.88" r="5.45" fill="#cee4ed"/><circle cx="4236.87" cy="1859.88" r="5.45" fill="#cee4ed"/><circle cx="4271.21" cy="1859.88" r="5.45" fill="#cee4ed"/><circle cx="4288.38" cy="1877.77" r="5.45" fill="#cee4ed"/><circle cx="4048.02" cy="1877.77" r="5.45" fill="#cee4ed"/><circle cx="4082.36" cy="1877.77" r="5.45" fill="#cee4ed"/><circle cx="4116.69" cy="1877.77" r="5.45" fill="#cee4ed"/><circle cx="4151.03" cy="1877.77" r="5.45" fill="#cee4ed"/><circle cx="4185.37" cy="1877.77" r="5.45" fill="#cee4ed"/><circle cx="4219.7" cy="1877.77" r="5.45" fill="#cee4ed"/><circle cx="4254.04" cy="1877.77" r="5.45" fill="#cee4ed"/><circle cx="4305.55" cy="1895.66" r="5.45" fill="#cee4ed"/><circle cx="4065.19" cy="1895.66" r="5.45" fill="#cee4ed"/><circle cx="4099.52" cy="1895.66" r="5.45" fill="#cee4ed"/><circle cx="4133.86" cy="1895.66" r="5.45" fill="#cee4ed"/><circle cx="4168.2" cy="1895.66" r="5.45" fill="#cee4ed"/><circle cx="4202.53" cy="1895.66" r="5.45" fill="#cee4ed"/><circle cx="4236.87" cy="1895.66" r="5.45" fill="#cee4ed"/><circle cx="4271.21" cy="1895.66" r="5.45" fill="#cee4ed"/><circle cx="4288.38" cy="1913.55" r="5.45" fill="#cee4ed"/><circle cx="4322.71" cy="1913.55" r="5.45" fill="#cee4ed"/><circle cx="4048.02" cy="1913.55" r="5.45" fill="#cee4ed"/><circle cx="4082.36" cy="1913.55" r="5.45" fill="#cee4ed"/><circle cx="4116.69" cy="1913.55" r="5.45" fill="#cee4ed"/><circle cx="4151.03" cy="1913.55" r="5.45" fill="#cee4ed"/><circle cx="4185.37" cy="1913.55" r="5.45" fill="#cee4ed"/><circle cx="4219.7" cy="1913.55" r="5.45" fill="#cee4ed"/><circle cx="4254.04" cy="1913.55" r="5.45" fill="#cee4ed"/><circle cx="4305.55" cy="1931.44" r="5.45" fill="#cee4ed"/><circle cx="4339.88" cy="1931.44" r="5.45" fill="#cee4ed"/><circle cx="4065.19" cy="1931.44" r="5.45" fill="#cee4ed"/><circle cx="4099.52" cy="1931.44" r="5.45" fill="#cee4ed"/><circle cx="4133.86" cy="1931.44" r="5.45" fill="#cee4ed"/><circle cx="4168.2" cy="1931.44" r="5.45" fill="#cee4ed"/><circle cx="4202.53" cy="1931.44" r="5.45" fill="#cee4ed"/><circle cx="4236.87" cy="1931.44" r="5.45" fill="#cee4ed"/><circle cx="4271.21" cy="1931.44" r="5.45" fill="#cee4ed"/><circle cx="4288.38" cy="1949.33" r="5.45" fill="#cee4ed"/><circle cx="4322.71" cy="1949.33" r="5.45" fill="#cee4ed"/><circle cx="4357.05" cy="1949.33" r="5.45" fill="#cee4ed"/><circle cx="4048.02" cy="1949.33" r="5.45" fill="#cee4ed"/><circle cx="4082.36" cy="1949.33" r="5.45" fill="#cee4ed"/><circle cx="4116.69" cy="1949.33" r="5.45" fill="#cee4ed"/><circle cx="4151.03" cy="1949.33" r="5.45" fill="#cee4ed"/><circle cx="4185.37" cy="1949.33" r="5.45" fill="#cee4ed"/><circle cx="4219.7" cy="1949.33" r="5.45" fill="#cee4ed"/><circle cx="4254.04" cy="1949.33" r="5.45" fill="#cee4ed"/><circle cx="4305.9" cy="1859.88" r="5.45" fill="#cee4ed"/><circle cx="4340.23" cy="1859.88" r="5.45" fill="#cee4ed"/><circle cx="4357.4" cy="1877.77" r="5.45" fill="#cee4ed"/><circle cx="4323.06" cy="1877.77" r="5.45" fill="#cee4ed"/><circle cx="4374.57" cy="1895.66" r="5.45" fill="#cee4ed"/><circle cx="4340.23" cy="1895.66" r="5.45" fill="#cee4ed"/><circle cx="4357.4" cy="1913.55" r="5.45" fill="#cee4ed"/><circle cx="4391.74" cy="1913.55" r="5.45" fill="#cee4ed"/><circle cx="4374.57" cy="1931.44" r="5.45" fill="#cee4ed"/><circle cx="4408.91" cy="1931.44" r="5.45" fill="#cee4ed"/><circle cx="4391.74" cy="1949.33" r="5.45" fill="#cee4ed"/><circle cx="4426.07" cy="1949.33" r="5.45" fill="#cee4ed"/></g><polygon id="BACKGROUND-2" data-name="BACKGROUND" points="3145.33 806.13 3737.03 497.36 4329.42 806.13 4329.42 1846.13 3145.32 1846.13 3145.33 806.13" fill="#98c8db"/><g id="LAMP"><polygon points="3948.24 817.09 4278.94 1847.22 3334.41 1847.22 3727.76 817.09 3948.24 817.09" fill="#fff"/><line x1="3837.2" y1="817.09" x2="3837.2" y2="1847.22" fill="none" stroke="#a74602" stroke-miterlimit="10" stroke-width="5"/><polygon points="3948.23 817.1 3727.75 817.1 3761.41 715.83 3914.57 715.83 3948.23 817.1" fill="#ffc200"/><line x1="3764.92" y1="703.49" x2="3911.07" y2="703.49" fill="none" stroke="#fff" stroke-linecap="round" stroke-miterlimit="10" stroke-width="5"/><line x1="3902.88" y1="817.1" x2="3902.88" y2="942.63" fill="none" stroke="#a74602" stroke-miterlimit="10" stroke-width="5"/><circle cx="3902.74" cy="950.37" r="8.42" fill="none" stroke="#f3b304" stroke-linecap="round" stroke-miterlimit="10" stroke-width="5"/></g><g id="CHARACTER-2" data-name="CHARACTER"><g id="CHAIR"><path d="M3700,1580.34a54,54,0,0,1-47.53,28.33h-331v-42.29h59.65l83-188.8a55.77,55.77,0,0,1,51-33.33h210.81c41.12,0,68.09,43,50.22,80Z" fill="#59221d"/><line x1="3627.18" y1="1608.67" x2="3717.56" y2="1846.13" fill="none" stroke="#59221d" stroke-linecap="round" stroke-linejoin="round" stroke-width="5"/><line x1="3426.27" y1="1608.67" x2="3335.89" y2="1846.13" fill="none" stroke="#59221d" stroke-linecap="round" stroke-linejoin="round" stroke-width="5"/></g><g id="SHIRT"><path d="M3390.72,1294v-40.44a120.19,120.19,0,0,1,120.19-120.19h187.58a149,149,0,0,1,140.05,98.08l44.19,121.47c14.62,40.2,2.83,81.58-24.09,108.59-25.59,25.68-63.71,34.33-98.27,23.36l-57.65-26.26-20.22,29.69Z" fill="#f5bbbb"/><path d="M3769.57,1151.43h-322q3.84-2.4,7.85-4.49H3760.6c2.77,1.27,5.51,2.63,8.19,4.08C3769.06,1151.15,3769.32,1151.29,3769.57,1151.43Z" fill="#fed4c7"/><path d="M3801.78,1175H3420c1.32-1.52,2.68-3,4.08-4.48h372.85C3798.57,1172,3800.18,1173.46,3801.78,1175Z" fill="#fed4c7"/><path d="M3821.68,1198.56H3404l.66-1.27c.58-1.08,1.16-2.15,1.77-3.22h412c.65.86,1.28,1.75,1.9,2.64C3820.84,1197.32,3821.26,1197.92,3821.68,1198.56Z" fill="#fed4c7"/><path d="M3834.76,1222.12H3394.88c.4-1.51.84-3,1.31-4.49h436.5Q3833.77,1219.85,3834.76,1222.12Z" fill="#fed4c7"/><path d="M3843.71,1245.68H3391c.08-1.5.22-3,.36-4.48h450.73Z" fill="#fed4c7"/><polygon points="3852.28 1269.25 3390.72 1269.25 3390.72 1264.76 3850.65 1264.76 3852.28 1269.25" fill="#fed4c7"/><polygon points="3860.85 1292.81 3390.72 1292.81 3390.72 1288.32 3859.22 1288.32 3860.85 1292.81" fill="#fed4c7"/><polygon points="3869.42 1316.37 3424.28 1316.37 3418.71 1312.66 3417.54 1311.88 3867.8 1311.88 3869.42 1316.37" fill="#fed4c7"/><polygon points="3878 1339.93 3459.66 1339.93 3452.92 1335.45 3876.37 1335.45 3878 1339.93" fill="#fed4c7"/><path d="M3886,1363.5H3495.05l-5.65-3.76-1.09-.73h396.42C3885.18,1360.5,3885.59,1362,3886,1363.5Z" fill="#fed4c7"/><path d="M3889.05,1387.06H3530.43l-6.73-4.49h365.18C3889,1384.08,3889,1385.57,3889.05,1387.06Z" fill="#fed4c7"/><path d="M3887.51,1406.14c-.26,1.5-.56,3-.9,4.48H3565.82l-5.73-3.81-1-.67Z" fill="#fed4c7"/><path d="M3880.35,1429.7q-1,2.27-2.1,4.49h-277l-6.74-4.49Z" fill="#fed4c7"/><path d="M3866.05,1453.26q-1.47,1.82-3,3.57l-.81.92H3636.59l-4.69-3.13-2-1.36Z" fill="#fed4c7"/><polygon points="3584.77 1133.39 3584.77 1423.25 3580.28 1420.25 3580.28 1133.39 3584.77 1133.39" fill="#fed4c7"/><polygon points="3608.34 1133.39 3608.34 1438.93 3603.85 1435.95 3603.85 1133.39 3608.34 1133.39" fill="#fed4c7"/><polygon points="3631.9 1133.39 3631.9 1454.62 3629.86 1453.26 3627.41 1451.63 3627.41 1133.39 3631.9 1133.39" fill="#fed4c7"/><polygon points="3655.46 1133.39 3655.46 1470.32 3650.97 1467.32 3650.97 1133.39 3655.46 1133.39" fill="#fed4c7"/><polygon points="3679.02 1133.39 3679.02 1486 3674.54 1483.02 3674.54 1133.39 3679.02 1133.39" fill="#fed4c7"/><path d="M3702.59,1133.45v325.37l-4.49,6.59v-332h.39l2.16,0,1.68,0Z" fill="#fed4c7"/><path d="M3726.15,1136v338l-4.49-1.43V1135.2C3723.17,1135.43,3724.66,1135.69,3726.15,1136Z" fill="#fed4c7"/><path d="M3749.71,1142.47v339l-4.48-1.42V1140.91C3746.73,1141.39,3748.23,1141.92,3749.71,1142.47Z" fill="#fed4c7"/><path d="M3773.28,1153.52v334.53c-1.51-.26-3-.57-4.49-.9V1151c.27.13.53.27.78.41C3770.82,1152.11,3772.05,1152.8,3773.28,1153.52Z" fill="#fed4c7"/><path d="M3796.84,1170.45v318.89c-1.49.1-3,.16-4.49.19V1166.66Q3794.63,1168.51,3796.84,1170.45Z" fill="#fed4c7"/><path d="M3820.4,1196.71v288.14c-.71.24-1.42.46-2.14.67l-1.73.49-.62.17V1190.66c.89,1.12,1.75,2.26,2.59,3.41C3819.15,1194.93,3819.78,1195.82,3820.4,1196.71Z" fill="#fed4c7"/><path d="M3844,1246.39v227.14c-.71.48-1.43,1-2.15,1.4s-1.35.83-2,1.23l-.3.19V1234.06l2.59,7.13,1.64,4.49Z" fill="#fed4c7"/><path d="M3867.53,1311.16v140.22c-.48.63-1,1.27-1.48,1.88q-1.47,1.82-3,3.57v-158Z" fill="#fed4c7"/><path d="M3418.71,1176.49v136.17l-1.17-.78-3.32-2.21V1182.18C3415.66,1180.24,3417.15,1178.34,3418.71,1176.49Z" fill="#fed4c7"/><path d="M3442.27,1154.92v173.44l-4.49-3V1158.2C3439.25,1157.06,3440.75,1156,3442.27,1154.92Z" fill="#fed4c7"/><path d="M3465.84,1142.13V1344l-4.49-3v-197C3462.83,1143.39,3464.32,1142.74,3465.84,1142.13Z" fill="#fed4c7"/><path d="M3489.4,1135.31v224.43l-1.09-.73-3.4-2.27V1136.22C3486.39,1135.88,3487.9,1135.58,3489.4,1135.31Z" fill="#fed4c7"/><path d="M3513,1133.39v242l-4.49-3v-239l2.44,0Z" fill="#fed4c7"/><polygon points="3536.53 1133.39 3536.53 1391.11 3532.04 1388.13 3532.04 1133.39 3536.53 1133.39" fill="#fed4c7"/><polygon points="3560.09 1133.39 3560.09 1406.81 3559.08 1406.14 3555.6 1403.81 3555.6 1133.39 3560.09 1133.39" fill="#fed4c7"/><line x1="3746.95" y1="1341.13" x2="3710.75" y2="1267" fill="none" stroke="#59221d" stroke-linecap="round" stroke-linejoin="round" stroke-width="4"/></g><g id="LAPTOP"><path d="M3522.91,1352.61H3309.18l-41.39-130.44a13.18,13.18,0,0,1,12.57-17.17h179.83a21.69,21.69,0,0,1,20.68,15.13Z" fill="#59221d"/><path d="M3233.29,1211.1a37,37,0,0,1,37-37" fill="none" stroke="#fff" stroke-linecap="round" stroke-miterlimit="10" stroke-width="5"/><path d="M3208.15,1211.1A62.14,62.14,0,0,1,3270.3,1149" fill="none" stroke="#fff" stroke-linecap="round" stroke-miterlimit="10" stroke-width="5"/><path d="M3184.3,1211.1a86,86,0,0,1,86-86" fill="none" stroke="#fff" stroke-linecap="round" stroke-miterlimit="10" stroke-width="5"/></g><g id="HAND"><path d="M3856.28,1467.77c-30.22,36.07-97.48,21.67-116.37,14-52.77-21.5-121.65-79.89-136.68-89a14.13,14.13,0,0,0-16.59-.59l-36.78,29.4c-9.52,6.71-19.07,7.06-27.87-.57l-47.49-40.14-10.06,5.34a22.33,22.33,0,0,1-16.88,1.9,9.24,9.24,0,0,1-2-16.61l77.4-48.75h0a123.41,123.41,0,0,1,67.57-20.16h5a210.11,210.11,0,0,1,40.34,3.91l158.9,37.8C3845.28,1352.61,3907.92,1406.14,3856.28,1467.77Z" fill="#a74602"/><line x1="3475.12" y1="1381.04" x2="3513.04" y2="1358" fill="none" stroke="#59221d" stroke-linecap="round" stroke-linejoin="round" stroke-width="4"/><line x1="3494.26" y1="1395.55" x2="3530.32" y2="1373.94" fill="none" stroke="#59221d" stroke-linecap="round" stroke-linejoin="round" stroke-width="4"/><line x1="3512.7" y1="1411.66" x2="3548.77" y2="1390.04" fill="none" stroke="#59221d" stroke-linecap="round" stroke-linejoin="round" stroke-width="4"/></g><g id="LEGS"><g id="LEGS-2" data-name="LEGS"><path id="LEFT" d="M3682.49,1488.32l-18.95,21.55A168.3,168.3,0,0,1,3452.1,1544l-179.72-105.2a16.26,16.26,0,0,0-20.51,3.41l-190.39,220.56-60.71-48.13a36.66,36.66,0,0,1-12.09-17.62l-6.87-21.82a61,61,0,0,0-20-29.24l-18.18-14.53,232.72-252.55a125.26,125.26,0,0,1,161.93-19.8Z" fill="#fff" stroke="#59221d" stroke-linejoin="round" stroke-width="5"/><path id="RIGHT" d="M3498.3,1566.86,3339,1566.5a17.56,17.56,0,0,0-17.61,17.56v219.36H3244.2a36.71,36.71,0,0,1-20.45-6.23l-19-12.74a60.88,60.88,0,0,0-33.91-10.33h-23.27c.23-2.51.36-5,.36-7.61v-255.9c0-64.15,69.63-104.09,125-71.7Z" fill="#fff" stroke="#59221d" stroke-linejoin="round" stroke-width="5"/></g><g id="SHOES"><g id="RIGHT-2" data-name="RIGHT"><path d="M3321.43,1803.42v13.44a30.37,30.37,0,0,1-30.36,30.36h-193l21.69-18.86a81.91,81.91,0,0,0,27.83-54.24h23.27a60.88,60.88,0,0,1,33.91,10.33l19,12.74a36.71,36.71,0,0,0,20.45,6.23Z" fill="#98c8db"/><path d="M3321.43,1803.42v13.44a30.37,30.37,0,0,1-30.36,30.36h-193l21.69-18.86a81.91,81.91,0,0,0,27.83-54.24h23.27a60.88,60.88,0,0,1,33.91,10.33l19,12.74a36.71,36.71,0,0,0,20.45,6.23Z" fill="none" stroke="#59221d" stroke-linecap="round" stroke-linejoin="round" stroke-width="5"/><path d="M3321.43,1803.42v7.26s-10.6,23.69-23.7,23.69H3112.85l6.9-6a81.91,81.91,0,0,0,27.83-54.24h23.27a60.88,60.88,0,0,1,33.91,10.33l19,12.74a36.71,36.71,0,0,0,20.45,6.23Z" fill="none" stroke="#59221d" stroke-linecap="round" stroke-linejoin="round" stroke-width="5"/><path d="M3321.43,1810.68v6.18a30.37,30.37,0,0,1-30.36,30.36h-193l14.79-12.85h184.88C3310.83,1834.37,3321.43,1810.68,3321.43,1810.68Z" fill="#fff" stroke="#59221d" stroke-linejoin="round" stroke-width="5"/></g><g id="LEFT-2" data-name="LEFT"><path d="M3061.09,1662.86l-8.39,10.5a30.39,30.39,0,0,1-42.68,4.76l-150.75-120.51,28.72-1.2a81.88,81.88,0,0,0,55.6-25l18.18,14.53a61,61,0,0,1,20,29.24l6.88,21.82a36.58,36.58,0,0,0,12.08,17.62Z" fill="#98c8db"/><path d="M3061.09,1662.86l-8.39,10.5a30.39,30.39,0,0,1-42.68,4.76l-150.75-120.51,28.72-1.2a81.88,81.88,0,0,0,55.6-25l18.18,14.53a61,61,0,0,1,20,29.24l6.88,21.82a36.58,36.58,0,0,0,12.08,17.62Z" fill="none" stroke="#59221d" stroke-linecap="round" stroke-linejoin="round" stroke-width="5"/><path d="M3061.09,1662.86l-4.53,5.67s-23.07,11.88-33.3,3.7L2878.85,1556.8l9.14-.39a81.88,81.88,0,0,0,55.6-25l18.18,14.53a61,61,0,0,1,20,29.24l6.88,21.82a36.58,36.58,0,0,0,12.08,17.62Z" fill="none" stroke="#59221d" stroke-linecap="round" stroke-linejoin="round" stroke-width="5"/><path d="M3056.56,1668.53l-3.86,4.83a30.39,30.39,0,0,1-42.68,4.76l-150.75-120.51,19.58-.81,144.41,115.43C3033.49,1680.41,3056.56,1668.53,3056.56,1668.53Z" fill="#fff" stroke="#59221d" stroke-linejoin="round" stroke-width="5"/></g></g></g><g id="HEAD"><g id="NECK"><polygon points="3581.3 1180.4 3661.89 1133.39 3634.43 1080.26 3581.3 1096.89 3581.3 1180.4" fill="#a74602"/><polyline points="3581.3 1097.4 3581.3 1180.4 3661.89 1133.39" fill="none" stroke="#59221d" stroke-linecap="round" stroke-linejoin="round" stroke-width="4"/><path d="M3581.3,1134.08l38.13-23.57a31.66,31.66,0,0,0,15-26.91v-3.34l-53.13,16.63Z" fill="#59221d"/></g><g id="HEAD-2" data-name="HEAD"><path id="HEAD-3" data-name="HEAD" d="M3650.32,1067.14v3.24a13.29,13.29,0,0,1-13.28,13.29h-9.13l-1.81,3.52A29.12,29.12,0,0,1,3602,1103L3584.4,1104a12.8,12.8,0,0,1-13.59-12.78v-39.35a21.86,21.86,0,0,1,21.86-21.86h6.67a21.85,21.85,0,0,1,21.29,16.93l2.73,11.79a10.78,10.78,0,0,1,9-4.89H3637A13.29,13.29,0,0,1,3650.32,1067.14Z" fill="#a74602"/><g id="FACE"><polyline points="3571.92 1052.75 3583.51 1052.75 3581.1 1076.58 3588.36 1076.58" fill="none" stroke="#59221d" stroke-linecap="round" stroke-linejoin="round" stroke-width="4"/><line x1="3596.92" y1="1052.73" x2="3611.24" y2="1053.87" fill="none" stroke="#59221d" stroke-linecap="round" stroke-linejoin="round" stroke-width="4"/><path d="M3637.58,1062.63a8.27,8.27,0,0,0-8.27,8.27" fill="none" stroke="#59221d" stroke-linecap="round" stroke-linejoin="round" stroke-width="4"/><ellipse cx="3601.93" cy="1064.62" rx="2.33" ry="4.14" fill="#59221d"/><ellipse cx="3573.88" cy="1064.62" rx="2.33" ry="4.14" fill="#59221d"/><path d="M3583.59,1087.19h5.48a10.12,10.12,0,0,0,6.71-2.54" fill="none" stroke="#59221d" stroke-linecap="round" stroke-linejoin="round" stroke-width="4"/></g></g><path id="HAIR" d="M3644.57,1043a17.55,17.55,0,0,1-4.08,11.28,13.11,13.11,0,0,0-3.45-.46h-4.65a10.78,10.78,0,0,0-9,4.89l-2.73-11.79a21.68,21.68,0,0,0-4.1-8.56,16,16,0,0,1-7.25,5,17.2,17.2,0,0,1-5.64.94,16.91,16.91,0,0,1-10-3.19,14.81,14.81,0,0,1-6.19-10.47,21.87,21.87,0,0,0-16.29,17.15,17.65,17.65,0,1,1,20.09-28.33,16.7,16.7,0,0,1,12.36-5.31c8.13,0,14.86,5.54,16.05,12.77a17.43,17.43,0,0,1,7.23-1.55A17.65,17.65,0,0,1,3644.57,1043Z" fill="#ffc200"/></g></g><g id="PLANT"><path d="M4071.83,1787.65h76.26a14.36,14.36,0,0,1,14.36,14.36v46.33a0,0,0,0,1,0,0h-105a0,0,0,0,1,0,0V1802A14.36,14.36,0,0,1,4071.83,1787.65Z" fill="#f5bbbb"/><path d="M4258.82,1182.74v87.87a57.81,57.81,0,0,1-20.44,44.11h0a66.46,66.46,0,0,0-23.49,50.7v41.2a57.82,57.82,0,0,1-28.46,49.82h0a51,51,0,0,0-25.09,43.91v33.56a56.2,56.2,0,0,1-29.42,49.41l-13.82,7.49V1475.32a305.75,305.75,0,0,1,58.72-180.17Z" fill="#ffc200"/><path d="M4258.82,1182.74v87.87a57.79,57.79,0,0,1-20.44,44.11,66.51,66.51,0,0,0-23.49,50.7v41.2a57.83,57.83,0,0,1-28.46,49.82,50.94,50.94,0,0,0-18.38,18.62,50.32,50.32,0,0,0-4.84,11.64l-32-99.79a305.38,305.38,0,0,1,45.66-91.76Z" fill="#a74602"/><path d="M4100.61,1700.17v-44.24a259.47,259.47,0,0,0-91.38-197.68l-57.51-48.91v58.71a53,53,0,0,0,28,46.71h0a40.52,40.52,0,0,1,21.41,35.73v11.78a55.83,55.83,0,0,0,29.6,49.29h0a25.53,25.53,0,0,1,13.54,22.54h0a64.44,64.44,0,0,0,40.84,60Z" fill="#ffc200"/><path d="M4118.1,1787.65V1579.59a2.77,2.77,0,1,1,5.53,0v208.06Z" fill="#ffc200"/><path d="M4095.08,1787.65V1677.73a2.77,2.77,0,1,1,5.53,0v109.92Z" fill="#ffc200"/><path d="M4135,1787.65v-106.4a2.77,2.77,0,1,1,5.54,0v106.4Z" fill="#ffc200"/><circle cx="4140.97" cy="1672.4" r="11.22" fill="#a74602"/><circle cx="4078.56" cy="1491.8" r="11.22" fill="#a74602"/></g><g id="CLOCK"><circle cx="3401.85" cy="876.95" r="86.55" fill="#fff"/><circle cx="3392.85" cy="870.2" r="86.55" fill="none" stroke="#59221d" stroke-linecap="round" stroke-linejoin="round" stroke-width="4"/><circle cx="3392.85" cy="801.61" r="5.22" fill="#ffc200"/><circle cx="3392.85" cy="938.79" r="5.22" fill="#ffc200"/><circle cx="3324.26" cy="870.2" r="5.22" fill="#ffc200"/><circle cx="3461.45" cy="870.2" r="5.22" fill="#ffc200"/><polyline points="3366.28 847.6 3392.65 872.57 3422.63 823.13" fill="none" stroke="#59221d" stroke-linecap="round" stroke-linejoin="round" stroke-width="4"/></g></g><g id="TRUCK"><g id="ROAD"><polygon points="1855.61 1871.38 2237.15 1871.38 2326.77 1854.49 1945.23 1854.49 1855.61 1871.38" fill="#cee4ed"/><polygon points="1246.54 1871.38 1628.08 1871.38 1717.7 1854.49 1336.17 1854.49 1246.54 1871.38" fill="#cee4ed"/><polygon points="637.48 1871.38 1019.01 1871.38 1108.64 1854.49 727.1 1854.49 637.48 1871.38" fill="#cee4ed"/><polygon points="28.41 1871.38 409.94 1871.38 499.57 1854.49 118.03 1854.49 28.41 1871.38" fill="#cee4ed"/></g><circle id="BACK_WHEEL" data-name="BACK WHEEL" cx="2022.46" cy="1740.12" r="111.57" fill="#59221d"/><g id="CAR"><path d="M2214.13,1403.06,2026.9,1261.65,1833.62,808.08a141.88,141.88,0,0,0-130.51-86.25h-1395a90.87,90.87,0,0,0-90.86,90.87v876.81H2246.2v-222A80.68,80.68,0,0,0,2214.13,1403.06Z" fill="#ffc200" stroke="#592d29" stroke-miterlimit="10" stroke-width="5"/><path d="M2246.19,1467.46v222H1690.4v-222a80.7,80.7,0,0,0-32.07-64.41l-187.22-141.41L1277.82,808.09a141.87,141.87,0,0,0-130.51-86.26h555.8a141.87,141.87,0,0,1,130.51,86.26l193.28,453.55,187.23,141.41A80.69,80.69,0,0,1,2246.19,1467.46Z" fill="#fff" stroke="#592d29" stroke-miterlimit="10" stroke-width="5"/><path d="M179.83,1689.51H2278a19.58,19.58,0,0,1,19.58,19.58v31a0,0,0,0,1,0,0H160.25a0,0,0,0,1,0,0v-31A19.58,19.58,0,0,1,179.83,1689.51Z" fill="#fff" stroke="#592d29" stroke-miterlimit="10" stroke-width="5"/><rect x="1849.45" y="1553.24" width="255.83" height="74.06" rx="8.99" fill="#98c8db"/><rect x="1861.63" y="1544.38" width="255.83" height="74.06" rx="8.99" fill="none" stroke="#592d29" stroke-miterlimit="10" stroke-width="5"/><circle cx="2034.14" cy="1558.17" r="4.72" fill="#59221d"/><circle cx="2063.87" cy="1558.17" r="4.72" fill="#59221d"/><circle cx="2093.6" cy="1558.17" r="4.72" fill="#59221d"/><circle cx="1885.49" cy="1558.17" r="4.72" fill="#59221d"/><circle cx="1915.22" cy="1558.17" r="4.72" fill="#59221d"/><circle cx="1944.95" cy="1558.17" r="4.72" fill="#59221d"/><circle cx="1974.68" cy="1558.17" r="4.72" fill="#59221d"/><circle cx="2004.41" cy="1558.17" r="4.72" fill="#59221d"/><circle cx="2019.27" cy="1573.66" r="4.72" fill="#59221d"/><circle cx="2049" cy="1573.66" r="4.72" fill="#59221d"/><circle cx="2078.73" cy="1573.66" r="4.72" fill="#59221d"/><circle cx="1900.35" cy="1573.66" r="4.72" fill="#59221d"/><circle cx="1930.08" cy="1573.66" r="4.72" fill="#59221d"/><circle cx="1959.81" cy="1573.66" r="4.72" fill="#59221d"/><circle cx="1989.54" cy="1573.66" r="4.72" fill="#59221d"/><circle cx="2034.14" cy="1589.15" r="4.72" fill="#59221d"/><circle cx="2063.87" cy="1589.15" r="4.72" fill="#59221d"/><circle cx="2093.6" cy="1589.15" r="4.72" fill="#59221d"/><circle cx="1885.49" cy="1589.15" r="4.72" fill="#59221d"/><circle cx="1915.22" cy="1589.15" r="4.72" fill="#59221d"/><circle cx="1944.95" cy="1589.15" r="4.72" fill="#59221d"/><circle cx="1974.68" cy="1589.15" r="4.72" fill="#59221d"/><circle cx="2004.41" cy="1589.15" r="4.72" fill="#59221d"/><circle cx="2019.27" cy="1604.64" r="4.72" fill="#59221d"/><circle cx="2049" cy="1604.64" r="4.72" fill="#59221d"/><circle cx="2078.73" cy="1604.64" r="4.72" fill="#59221d"/><circle cx="1900.35" cy="1604.64" r="4.72" fill="#59221d"/><circle cx="1930.08" cy="1604.64" r="4.72" fill="#59221d"/><circle cx="1959.81" cy="1604.64" r="4.72" fill="#59221d"/><circle cx="1989.54" cy="1604.64" r="4.72" fill="#59221d"/></g><g id="WINDOW"><path d="M1163.26,1262V850.17a46.85,46.85,0,0,1,46.86-46.85h540.4a55.51,55.51,0,0,1,51.07,33.74l174.32,424.58Z" fill="#fff"/><path d="M1186.52,1262V865.68a46.86,46.86,0,0,1,46.86-46.86h540.4a55.52,55.52,0,0,1,51.07,33.75l174.32,409.07Z" fill="#98c8db"/></g><g id="SEAT"><path d="M1514.64,972.36a46.77,46.77,0,0,0-46.78,46.78V1262h-42.27V1019.14a46.77,46.77,0,0,1,46.78-46.78Z" fill="#59221d"/><path d="M1734.05,1019.14V1262H1467.86V1019.14a46.77,46.77,0,0,1,46.78-46.78h172.63A46.78,46.78,0,0,1,1734.05,1019.14Z" fill="#a74602"/></g><g id="MIRRORS"><path d="M1999.36,1262H2078a26.37,26.37,0,0,0,26.37-26.37V1146.2a15.47,15.47,0,0,0-15.47-15.46h-25.06a15.47,15.47,0,0,0-15.47,15.46v89.51a26.14,26.14,0,0,1-25.93,26.14Z" fill="#fff"/><path d="M1459.51,1262H1327.68a26.37,26.37,0,0,1-26.37-26.37V1146.2a15.46,15.46,0,0,1,15.46-15.46h25.07a15.46,15.46,0,0,1,15.46,15.46v89.51a26.15,26.15,0,0,0,25.94,26.14Z" fill="#ffc200"/><path d="M1988.28,1262H2067a26.37,26.37,0,0,0,26.37-26.37V1146.2a15.46,15.46,0,0,0-15.46-15.46H2052.8a15.46,15.46,0,0,0-15.46,15.46v89.51a26.14,26.14,0,0,1-25.93,26.14Z" fill="#ffc200"/></g><g id="BOX"><path d="M773,1103.44v261.2H510.32A37.61,37.61,0,0,1,472.71,1327V1103.44Z" fill="#fff"/><path d="M772.86,1093.6H470.49a2.25,2.25,0,0,0-.64.08l-64.47-60.61h303.1Z" fill="#fff"/><path d="M964.43,1033.07,900,1093.68a2.29,2.29,0,0,0-.64-.08H784.1l64.38-60.53Z" fill="#fff"/><path d="M897.1,1103.44v223.43a37.78,37.78,0,0,1-37.78,37.77H783.93v-261.2Z" fill="#fff"/></g><g id="WHEELS"><path d="M347.18,1742.16a143.47,143.47,0,1,1,286.93,0Z" fill="#59221d"/><circle cx="490.65" cy="1740.12" r="111.57" fill="#f5bbbb"/><circle cx="490.65" cy="1740.12" r="92.44" fill="none" stroke="#fff" stroke-miterlimit="10" stroke-width="5"/><circle cx="490.65" cy="1738.88" r="18.5" fill="none" stroke="#592d29" stroke-miterlimit="10" stroke-width="5"/><path d="M1310,1742.16a143.47,143.47,0,1,1,286.93,0Z" fill="#59221d"/><circle cx="1455.1" cy="1740.12" r="111.57" fill="#f5bbbb"/><circle cx="1455.1" cy="1740.12" r="92.44" fill="none" stroke="#fff" stroke-miterlimit="10" stroke-width="5"/><circle cx="1454.89" cy="1740.55" r="18.5" fill="none" stroke="#592d29" stroke-miterlimit="10" stroke-width="5"/></g><g id="HEADLIGHTS"><circle cx="2186.79" cy="1490.28" r="44.3" fill="#ffc200"/><circle cx="2187.83" cy="1558.78" r="11.07" fill="none" stroke="#592d29" stroke-miterlimit="10" stroke-width="5"/><circle cx="1761.73" cy="1490.28" r="44.3" fill="#ffc200"/><circle cx="1759.56" cy="1558.78" r="11.07" fill="none" stroke="#592d29" stroke-miterlimit="10" stroke-width="5"/></g><g id="DRIVER"><path id="SHIRT-2" data-name="SHIRT" d="M1929.36,1262h-436.3l14.84-70.91a119.12,119.12,0,0,1,116.6-94.71h173.43a119.11,119.11,0,0,1,116.59,94.71Z" fill="#f5bbbb"/><g id="JACKET"><path d="M1700,1130.58v132.19l-107.07-.75,21.51-102a57.06,57.06,0,0,0,.19-22.76c-6.21-32-44.77-33.33-65.93-13.59l1.23-2.87a44.61,44.61,0,0,1,41-27.07h72.18A36.88,36.88,0,0,1,1700,1130.58Z" fill="#59221d"/><line x1="1614.13" y1="1163.37" x2="1697.74" y2="1163.37" fill="none" stroke="#fff" stroke-linecap="round" stroke-linejoin="round" stroke-width="5"/><line x1="1602.91" y1="1217.23" x2="1697.74" y2="1217.23" fill="none" stroke="#fff" stroke-linecap="round" stroke-linejoin="round" stroke-width="5"/><path d="M1846.9,1127.25v131.88H1783V1130.58c0-16.77-11-31.66-26.55-34.29l.6-4.08h54.79A35.06,35.06,0,0,1,1846.9,1127.25Z" fill="#59221d"/><line x1="1784.68" y1="1163.37" x2="1844.73" y2="1163.37" fill="none" stroke="#fff" stroke-linecap="round" stroke-linejoin="round" stroke-width="5"/></g><g id="HEAD-4" data-name="HEAD"><g id="NECK-2" data-name="NECK"><path d="M1668.91,1095.9l31.76-45h55.38v45S1738.75,1113.91,1668.91,1095.9Z" fill="#fff" stroke="#59221d" stroke-linejoin="round" stroke-width="3"/><path d="M1733.1,1103.19c16.83-2,23-7.29,23-7.29v-45h-55.38v5.73a28.85,28.85,0,0,0,7.62,19.53Z" fill="#59221d"/></g><g id="CAP"><path d="M1761.06,1003.75v5.79l-57.35,13.86v-11.78a21.77,21.77,0,0,1,21.77-21.77h21.69A13.89,13.89,0,0,1,1761.06,1003.75Z" fill="#ffc200"/><line x1="1704.83" y1="1023.4" x2="1791.48" y2="1001.86" fill="none" stroke="#59221d" stroke-linecap="round" stroke-linejoin="round" stroke-width="3"/></g><g id="HEAD-5" data-name="HEAD"><path d="M1761.06,1009.54l4.59,42.06a17.69,17.69,0,0,1-17.58,19.61h-21.66a18,18,0,0,1-15.55-9l-6-10.41H1695a13.89,13.89,0,0,1,0-27.77h2.36a8.07,8.07,0,0,1,7.45,5v-5.63Z" fill="#fff" stroke="#59221d" stroke-linejoin="round" stroke-width="3"/><path d="M1703.22,1023.4l23.6-4.57-10.14,2.44a7.15,7.15,0,0,0-5.47,6.94v4.19c0,3.78-4.22,6.85-8,6.85Z" fill="#59221d"/><path d="M1692.7,1030.56a7.39,7.39,0,0,1,7.4,7.39" fill="none" stroke="#59221d" stroke-linecap="round" stroke-linejoin="round" stroke-width="3"/><path d="M1742.23,1056.07a7.39,7.39,0,0,1-9.22-4.92" fill="none" stroke="#59221d" stroke-linecap="round" stroke-linejoin="round" stroke-width="3"/><path d="M1761.06,1020.61h-12.79a4.59,4.59,0,0,0-4.52,5.3c1.26,8,2.81,22.28-2,22.28" fill="none" stroke="#59221d" stroke-linecap="round" stroke-linejoin="round" stroke-width="3"/><ellipse cx="1731.52" cy="1031.62" rx="2.81" ry="4.49" fill="#59221d"/><ellipse cx="1753.96" cy="1031.62" rx="2.45" ry="3.93" fill="#59221d"/></g></g></g><g id="RUDDER"><path d="M2015.86,1262l-35-30.77a116.58,116.58,0,0,0-77-29.06H1798.56a116.49,116.49,0,0,0-55.63,14.14L1697.6,1241a173.92,173.92,0,0,1-83,21.08Z" fill="#a74602"/><path d="M1614.62,1262a173.92,173.92,0,0,0,83-21.08l45.33-24.61a116.49,116.49,0,0,1,55.63-14.14h105.32a116.58,116.58,0,0,1,77,29.06l30.14,24.92" fill="none" stroke="#fff" stroke-linecap="round" stroke-linejoin="round" stroke-width="5"/></g><g id="CONTOURS-2" data-name="CONTOURS"><path d="M1471.1,1261.93l.43,259.89c-3.3-.16-6.63-.23-10-.23-78.14,0-146.46,40.69-183.46,101.32a25.49,25.49,0,0,1-21.77,12.21h-95.28v-787a44.56,44.56,0,0,1,44.56-44.56h626.71" fill="none" stroke="#592d29" stroke-miterlimit="10" stroke-width="5"/><path d="M625.78,1762.56c0,27.23-12,51.92-31.61,70" fill="none" stroke="#592d29" stroke-linecap="round" stroke-miterlimit="10" stroke-width="5"/><path d="M1592,1760.56c0,27.22-12,51.91-31.6,70" fill="none" stroke="#592d29" stroke-linecap="round" stroke-miterlimit="10" stroke-width="5"/><path d="M1275.82,805.09c-22.29-52.31-71.66-83.26-128.51-83.26" fill="none" stroke="#592d29" stroke-miterlimit="10" stroke-width="5"/><path d="M1690.4,1689.51v-222a80.7,80.7,0,0,0-32.07-64.41l-187.22-141.41" fill="none" stroke="#592d29" stroke-miterlimit="10" stroke-width="5"/><path d="M1210,1316.69a18.24,18.24,0,0,1,18.23-18.24h60.15a18.24,18.24,0,0,1,18.24,18.24" fill="none" stroke="#592d29" stroke-linecap="round" stroke-miterlimit="10" stroke-width="5"/><path d="M2180.32,1377.52l32.45,24.35c10.84,8.14,5.09,25.4-8.48,25.4h-473a121.59,121.59,0,0,1-73-24.37l-33.78-25.38" fill="none" stroke="#592d29" stroke-miterlimit="10" stroke-width="5"/><line x1="507.64" y1="863.33" x2="92.26" y2="863.33" fill="none" stroke="#592d29" stroke-linecap="round" stroke-miterlimit="10" stroke-width="5"/><line x1="406.65" y1="909.33" x2="2.5" y2="909.33" fill="none" stroke="#592d29" stroke-linecap="round" stroke-miterlimit="10" stroke-width="5"/><path d="M413.89,679.57H1556.45a37.66,37.66,0,0,1,37.66,37.66v4.6a0,0,0,0,1,0,0H376.23a0,0,0,0,1,0,0v-4.6A37.66,37.66,0,0,1,413.89,679.57Z" fill="none" stroke="#592d29" stroke-miterlimit="10" stroke-width="5"/><line x1="1834.32" y1="1446.26" x2="2125.08" y2="1446.26" fill="none" stroke="#592d29" stroke-linecap="round" stroke-miterlimit="10" stroke-width="5"/><path d="M1470.59,1262H1338.75a26.37,26.37,0,0,1-26.36-26.37V1146.2a15.46,15.46,0,0,1,15.46-15.46h25.07a15.46,15.46,0,0,1,15.46,15.46v89.51a26.14,26.14,0,0,0,25.93,26.14Z" fill="none" stroke="#592d29" stroke-miterlimit="10" stroke-width="5"/><path d="M1999.36,1262H2078a26.37,26.37,0,0,0,26.37-26.37V1146.2a15.47,15.47,0,0,0-15.47-15.46h-25.06a15.47,15.47,0,0,0-15.47,15.46v89.51a26.14,26.14,0,0,1-25.93,26.14Z" fill="none" stroke="#592d29" stroke-miterlimit="10" stroke-width="5"/><line x1="1470.59" y1="1262.03" x2="2027.41" y2="1262.03" fill="none" stroke="#592d29" stroke-miterlimit="10" stroke-width="5"/><line x1="1699.86" y1="926.11" x2="1763.76" y2="864.77" fill="none" stroke="#fff" stroke-linecap="round" stroke-linejoin="round" stroke-width="5"/><line x1="1668.88" y1="955.83" x2="1684.18" y2="941.15" fill="none" stroke="#fff" stroke-linecap="round" stroke-linejoin="round" stroke-width="5"/><line x1="1479.17" y1="1137.9" x2="1634.48" y2="988.85" fill="none" stroke="#fff" stroke-linecap="round" stroke-linejoin="round" stroke-width="5"/><line x1="1658.92" y1="909.03" x2="1684.18" y2="884.78" fill="none" stroke="#fff" stroke-linecap="round" stroke-linejoin="round" stroke-width="5"/><line x1="1493.87" y1="1067.43" x2="1639" y2="928.15" fill="none" stroke="#fff" stroke-linecap="round" stroke-linejoin="round" stroke-width="5"/><polygon points="1473.76 1260.51 1468.45 1262.78 1279.26 818.82 1285.54 818.82 1473.76 1260.51" fill="#fff"/></g></g></g></g></svg>