<svg xmlns="http://www.w3.org/2000/svg" width="3576.85" height="2779.84" viewBox="0 0 3576.85 2779.84"><g id="Layer_2" data-name="Layer 2"><g id="Слой_1" data-name="Слой 1"><g id="RIVER"><path d="M3262.54,340.94h0a98.19,98.19,0,0,1-98.2,98.19h-286a74.26,74.26,0,0,0-74.26,74.27,77.54,77.54,0,0,1-77.51,77.51H1893.81a174.36,174.36,0,0,0-174.36,174.36V1006a202.23,202.23,0,0,1-81.77,162.44l-292.24,216.73a109.36,109.36,0,0,0-44.22,87.84V2417.8c0,198.92,160.71,360.35,359.5,361.37v.67h-990c-287.59,0-520.73-233.14-520.73-520.73V2137.17H937.8c109.49-1.29,220-88.75,223.25-223.24V1771.2a59.24,59.24,0,0,0-29.2-51l-11-6.5a76.78,76.78,0,0,1-37.88-66.21V1371.29a109.37,109.37,0,0,1,46-89.17l208-147.71a166.25,166.25,0,0,0,70-135.53v-344c0-173.36-140.54-313.9-313.9-313.9Z" fill="#98c8db"/><path d="M389,2317.71a23.19,23.19,0,0,1,32.79,0h0a23.18,23.18,0,0,0,32.78,0h0a23.19,23.19,0,0,1,32.79,0l.16.16a23.18,23.18,0,0,0,32.78,0l.48-.48a23.18,23.18,0,0,1,32.78,0l.47.48a23.19,23.19,0,0,0,32.79,0l.32-.32a23.18,23.18,0,0,1,32.78,0l.32.32a23.18,23.18,0,0,0,32.78,0l.16-.16a23.19,23.19,0,0,1,32.79,0" fill="none" stroke="#fff" stroke-linecap="round" stroke-miterlimit="10" stroke-width="5"/><path d="M686.13,2317.87a23.18,23.18,0,0,0,32.78,0l.16-.16a23.19,23.19,0,0,1,32.79,0" fill="none" stroke="#fff" stroke-linecap="round" stroke-miterlimit="10" stroke-width="5"/><path d="M487.33,2347.64l.16.16a23.18,23.18,0,0,0,32.78,0l.48-.48a23.18,23.18,0,0,1,32.78,0l.47.48a23.19,23.19,0,0,0,32.79,0l.32-.32a23.18,23.18,0,0,1,32.78,0l.32.32a23.18,23.18,0,0,0,32.78,0l.16-.16a23.19,23.19,0,0,1,32.79,0" fill="none" stroke="#fff" stroke-linecap="round" stroke-miterlimit="10" stroke-width="5"/><path d="M951,2592.27h0a21.81,21.81,0,0,1,30.85,0l.15.14a21.81,21.81,0,0,0,30.85,0l.45-.44a21.81,21.81,0,0,1,30.85,0l.44.44a21.81,21.81,0,0,0,30.85,0l.3-.29a21.81,21.81,0,0,1,30.85,0l.3.29c8.51,8.52,22.33,9.89,30.85,1.37" fill="none" stroke="#fff" stroke-linecap="round" stroke-miterlimit="10" stroke-width="5"/><path d="M981.83,2620.43l.15.15a21.81,21.81,0,0,0,30.85,0l.45-.45a21.81,21.81,0,0,1,30.85,0l.44.45a21.81,21.81,0,0,0,30.85,0l.3-.3a21.81,21.81,0,0,1,30.85,0" fill="none" stroke="#fff" stroke-linecap="round" stroke-miterlimit="10" stroke-width="5"/><path d="M2446,432.43h0a21.81,21.81,0,0,1,30.85,0l.15.15a21.81,21.81,0,0,0,30.85,0l.44-.45a21.81,21.81,0,0,1,30.85,0l.45.45a21.81,21.81,0,0,0,30.85,0l.29-.3a21.81,21.81,0,0,1,30.85,0l.3.3c8.52,8.52,22.33,9.88,30.85,1.37" fill="none" stroke="#fff" stroke-linecap="round" stroke-miterlimit="10" stroke-width="5"/><path d="M2539.14,460.3l.45.44a21.81,21.81,0,0,0,30.85,0l.29-.3a21.83,21.83,0,0,1,30.85,0" fill="none" stroke="#fff" stroke-linecap="round" stroke-miterlimit="10" stroke-width="5"/></g><g id="CLOUD"><path d="M1219.23,342.1H254.82c12.95-68.28,63.84-119.24,124.66-119.24,27.56,0,53.07,10.47,73.94,28.27v-.06C453.42,112.41,547.09,0,662.64,0c107.61,0,196.22,97.48,207.9,222.88V223c.86,9.23,1.32,18.6,1.32,28.11,0,2,0,4.07-.06,6.08,5,21.4,24.17,34.75,42.89,27.34,59.48-23.53,137.36-57.54,196.66-47.8C1199.9,251.23,1219.23,342.1,1219.23,342.1Z" fill="#f5bbbb"/><circle cx="402.9" cy="174.41" r="20.7" fill="#f5bbbb"/></g><g id="TRAIN"><g id="TUNNEL"><path d="M3267.65,930.36c0,6.47-.32,13-1,19.54H2640.12a197.8,197.8,0,0,0,1.11-20.92c0-98.71-73-178.72-163-178.72h659.31C3212.29,771,3267.65,843.87,3267.65,930.36Z" fill="#f3b304"/><path d="M2726.53,930.36c0,6.48-.32,13-1,19.54h-5c.65-6.5,1-13.06,1-19.54,0-93.68-66.6-171-151.64-180.1h26.54C2671.17,771,2726.53,843.87,2726.53,930.36Z" fill="#fff"/><path d="M2834.75,930.36c0,6.48-.31,13-.95,19.54h-5a194,194,0,0,0,1-19.54c0-93.68-66.6-171-151.63-180.1h26.54C2779.4,771,2834.75,843.87,2834.75,930.36Z" fill="#fff"/><path d="M2943,930.36c0,6.47-.32,13-1,19.54h-5c.65-6.5,1-13.07,1-19.54,0-93.68-66.61-171-151.64-180.1h26.54C2887.62,771,2943,843.87,2943,930.36Z" fill="#fff"/><path d="M3051.2,930.36c0,6.48-.32,13-1,19.54h-5c.65-6.5,1-13.06,1-19.54,0-93.68-66.61-171-151.64-180.1h26.54C2995.84,771,3051.2,843.87,3051.2,930.36Z" fill="#fff"/><path d="M3159.42,930.36c0,6.48-.31,13-1,19.54h-5a194,194,0,0,0,1-19.54c0-93.68-66.6-171-151.63-180.1h26.54C3104.07,771,3159.42,843.87,3159.42,930.36Z" fill="#fff"/><path d="M2641.23,931.29a156.73,156.73,0,0,1-1.11,18.62H2316.35a156.73,156.73,0,0,1-1.11-18.62c0-98.71,73-178.72,163-178.72S2641.23,832.58,2641.23,931.29Z" fill="none" stroke="#f3b304" stroke-linecap="round" stroke-miterlimit="10" stroke-width="5"/><path d="M2616.44,932.16a170.49,170.49,0,0,1-.94,17.75H2341a167.78,167.78,0,0,1-.94-17.75c0-83.69,61.87-151.53,138.2-151.53S2616.44,848.47,2616.44,932.16Z" fill="#59221d"/></g><g id="TRAIN-2" data-name="TRAIN"><path d="M2614.13,934.16c0,3.76-.13,7.46-.37,11.14h-417a10.56,10.56,0,0,1-9.66-14.86l2.39-5.36a112.21,112.21,0,0,1,102.55-66.64h303.58A162.13,162.13,0,0,1,2614.13,934.16Z" fill="#fff" stroke="#f3b304" stroke-linecap="round" stroke-miterlimit="10" stroke-width="5"/><path d="M2614.13,934.16c0,3.76-.13,7.46-.37,11.14h-36.94c.24-3.68.37-7.38.37-11.14v-.83c-.21-41.48-34.18-74.89-75.67-74.89h94.14A162.13,162.13,0,0,1,2614.13,934.16Z" fill="#f3b304"/><rect x="2367.55" y="885.31" width="171.85" height="20.43" rx="4.3" fill="#59221d"/><path d="M2252.33,892.09V899a6.79,6.79,0,0,1-6.79,6.79H2203.4c5.39-7.63,12.65-14.48,19.66-20.44h22.48A6.79,6.79,0,0,1,2252.33,892.09Z" fill="#59221d"/><path d="M2314,885.3h14.64a6.36,6.36,0,0,1,6.36,6.36v52.43a0,0,0,0,1,0,0h-27.36a0,0,0,0,1,0,0V891.66A6.36,6.36,0,0,1,2314,885.3Z" fill="#fff" stroke="#f3b304" stroke-linecap="round" stroke-miterlimit="10" stroke-width="5"/></g></g><g id="YELLOW_FIELDS" data-name="YELLOW FIELDS"><path d="M3354.64,2134.72a80.24,80.24,0,0,1-80.23,81.11H2988.79a639.38,639.38,0,0,0-350.91,104.9l-601,394.55a393.53,393.53,0,0,1-216,64.55H1660.72v-.66c-198.79-1-359.5-162.45-359.5-361.37V2134.72Z" fill="#f3b304"/><polygon points="2767 2134.72 1785.86 2779.83 1776.75 2779.83 2757.91 2134.72 2767 2134.72" fill="#fff"/><path d="M2933.49,2134.72l-213.42,140.33q-20,9.27-39.47,20l243.8-160.3Z" fill="#fff"/><path d="M3111.79,2134.72l-123.36,81.11q-4.62,0-9.22.08l123.49-81.19Z" fill="#fff"/><polygon points="3290.09 2134.72 3166.73 2215.83 3157.64 2215.83 3281 2134.72 3290.09 2134.72" fill="#fff"/><path d="M2585.33,2134.72l-974.54,640.76c-2.47-.35-4.92-.72-7.37-1.13l972.81-639.63Z" fill="#fff"/><path d="M2403.65,2134.72l-913.58,600.69c-1.66-.89-3.31-1.81-5-2.73l909.44-598Z" fill="#fff"/><path d="M2222,2134.72l-816.6,536.92q-1.8-1.8-3.55-3.65l811.05-533.27Z" fill="#fff"/><path d="M2040.31,2134.72l-694.69,456.76q-1.21-2.19-2.39-4.41l688-452.35Z" fill="#fff"/><path d="M1858.63,2134.72l-549,361q-.59-2.62-1.12-5.25l541-355.72Z" fill="#fff"/><polygon points="1676.96 2134.72 1301.22 2381.77 1301.22 2375.79 1667.86 2134.72 1676.96 2134.72" fill="#fff"/><polygon points="1495.29 2134.72 1301.22 2262.32 1301.22 2256.34 1486.19 2134.72 1495.29 2134.72" fill="#fff"/><path d="M1153.31,1741.94H520.48L5.66,1527.46H1082.59l.33,1v119a76.78,76.78,0,0,0,37.88,66.21l11,6.5A59.19,59.19,0,0,1,1153.31,1741.94Z" fill="#f3b304"/><circle cx="561.88" cy="728.21" r="7.01" fill="#f3b304"/><circle cx="608.26" cy="728.21" r="7.01" fill="#f3b304"/><circle cx="654.65" cy="728.21" r="7.01" fill="#f3b304"/><circle cx="701.03" cy="728.21" r="7.01" fill="#f3b304"/><circle cx="747.42" cy="728.21" r="7.01" fill="#f3b304"/><circle cx="793.8" cy="728.21" r="7.01" fill="#f3b304"/><circle cx="840.19" cy="728.21" r="7.01" fill="#f3b304"/><circle cx="237.18" cy="728.21" r="7.01" fill="#f3b304"/><circle cx="190.8" cy="728.21" r="7.01" fill="#f3b304"/><circle cx="283.57" cy="728.21" r="7.01" fill="#f3b304"/><circle cx="329.95" cy="728.21" r="7.01" fill="#f3b304"/><circle cx="376.34" cy="728.21" r="7.01" fill="#f3b304"/><circle cx="422.72" cy="728.21" r="7.01" fill="#f3b304"/><circle cx="469.11" cy="728.21" r="7.01" fill="#f3b304"/><circle cx="515.49" cy="728.21" r="7.01" fill="#f3b304"/><circle cx="237.18" cy="698.31" r="7.01" fill="#f3b304"/><circle cx="190.8" cy="698.31" r="7.01" fill="#f3b304"/><circle cx="283.57" cy="698.31" r="7.01" fill="#f3b304"/><circle cx="329.95" cy="698.31" r="7.01" fill="#f3b304"/><circle cx="376.34" cy="698.31" r="7.01" fill="#f3b304"/><circle cx="422.72" cy="698.31" r="7.01" fill="#f3b304"/><circle cx="469.11" cy="698.31" r="7.01" fill="#f3b304"/><circle cx="515.49" cy="698.31" r="7.01" fill="#f3b304"/><circle cx="237.18" cy="758.11" r="7.01" fill="#f3b304"/><circle cx="190.8" cy="758.11" r="7.01" fill="#f3b304"/><circle cx="283.57" cy="758.11" r="7.01" fill="#f3b304"/><circle cx="329.95" cy="758.11" r="7.01" fill="#f3b304"/><circle cx="376.34" cy="758.11" r="7.01" fill="#f3b304"/><circle cx="422.72" cy="758.11" r="7.01" fill="#f3b304"/><circle cx="469.11" cy="758.11" r="7.01" fill="#f3b304"/><circle cx="515.49" cy="758.11" r="7.01" fill="#f3b304"/><circle cx="886.57" cy="728.21" r="7.01" fill="#f3b304"/><circle cx="932.96" cy="728.21" r="7.01" fill="#f3b304"/><circle cx="979.34" cy="728.21" r="7.01" fill="#f3b304"/><circle cx="1025.73" cy="728.21" r="7.01" fill="#f3b304"/><circle cx="1072.11" cy="728.21" r="7.01" fill="#f3b304"/><circle cx="1118.5" cy="728.21" r="7.01" fill="#f3b304"/><circle cx="1164.88" cy="728.21" r="7.01" fill="#f3b304"/><circle cx="1211.27" cy="728.21" r="7.01" fill="#f3b304"/><circle cx="1257.65" cy="728.21" r="7.01" fill="#f3b304"/><circle cx="1304.03" cy="728.21" r="7.01" fill="#f3b304"/><circle cx="1350.42" cy="728.21" r="7.01" fill="#f3b304"/><circle cx="561.88" cy="698.31" r="7.01" fill="#f3b304"/><circle cx="608.26" cy="698.31" r="7.01" fill="#f3b304"/><circle cx="654.65" cy="698.31" r="7.01" fill="#f3b304"/><circle cx="701.03" cy="698.31" r="7.01" fill="#f3b304"/><circle cx="747.42" cy="698.31" r="7.01" fill="#f3b304"/><circle cx="793.8" cy="698.31" r="7.01" fill="#f3b304"/><circle cx="840.19" cy="698.31" r="7.01" fill="#f3b304"/><circle cx="886.57" cy="698.31" r="7.01" fill="#f3b304"/><circle cx="932.96" cy="698.31" r="7.01" fill="#f3b304"/><circle cx="979.34" cy="698.31" r="7.01" fill="#f3b304"/><circle cx="1025.73" cy="698.31" r="7.01" fill="#f3b304"/><circle cx="1072.11" cy="698.31" r="7.01" fill="#f3b304"/><circle cx="1118.5" cy="698.31" r="7.01" fill="#f3b304"/><circle cx="1164.88" cy="698.31" r="7.01" fill="#f3b304"/><circle cx="1211.27" cy="698.31" r="7.01" fill="#f3b304"/><circle cx="1257.65" cy="698.31" r="7.01" fill="#f3b304"/><circle cx="1304.03" cy="698.31" r="7.01" fill="#f3b304"/><circle cx="1350.42" cy="698.31" r="7.01" fill="#f3b304"/><circle cx="561.88" cy="758.11" r="7.01" fill="#f3b304"/><circle cx="608.26" cy="758.11" r="7.01" fill="#f3b304"/><circle cx="654.65" cy="758.11" r="7.01" fill="#f3b304"/><circle cx="701.03" cy="758.11" r="7.01" fill="#f3b304"/><circle cx="747.42" cy="758.11" r="7.01" fill="#f3b304"/><circle cx="793.8" cy="758.11" r="7.01" fill="#f3b304"/><circle cx="840.19" cy="758.11" r="7.01" fill="#f3b304"/><circle cx="886.57" cy="758.11" r="7.01" fill="#f3b304"/><circle cx="932.96" cy="758.11" r="7.01" fill="#f3b304"/><circle cx="979.34" cy="758.11" r="7.01" fill="#f3b304"/><circle cx="1025.73" cy="758.11" r="7.01" fill="#f3b304"/><circle cx="1072.11" cy="758.11" r="7.01" fill="#f3b304"/><circle cx="1350.42" cy="758.11" r="7.01" fill="#f3b304"/><circle cx="608.26" cy="637.02" r="7.01" fill="#f3b304"/><circle cx="654.65" cy="637.02" r="7.01" fill="#f3b304"/><circle cx="701.03" cy="637.02" r="7.01" fill="#f3b304"/><circle cx="747.42" cy="637.02" r="7.01" fill="#f3b304"/><circle cx="793.8" cy="637.02" r="7.01" fill="#f3b304"/><circle cx="840.19" cy="637.02" r="7.01" fill="#f3b304"/><circle cx="886.57" cy="637.02" r="7.01" fill="#f3b304"/><circle cx="932.96" cy="637.02" r="7.01" fill="#f3b304"/><circle cx="979.34" cy="637.02" r="7.01" fill="#f3b304"/><circle cx="1025.73" cy="637.02" r="7.01" fill="#f3b304"/><circle cx="1072.11" cy="637.02" r="7.01" fill="#f3b304"/><circle cx="1118.5" cy="637.02" r="7.01" fill="#f3b304"/><circle cx="1164.88" cy="637.02" r="7.01" fill="#f3b304"/><circle cx="1211.27" cy="637.02" r="7.01" fill="#f3b304"/><circle cx="1257.65" cy="637.02" r="7.01" fill="#f3b304"/><circle cx="1304.03" cy="637.02" r="7.01" fill="#f3b304"/><circle cx="1350.42" cy="637.02" r="7.01" fill="#f3b304"/><circle cx="608.26" cy="607.12" r="7.01" fill="#f3b304"/><circle cx="654.65" cy="607.12" r="7.01" fill="#f3b304"/><circle cx="701.03" cy="607.12" r="7.01" fill="#f3b304"/><circle cx="747.42" cy="607.12" r="7.01" fill="#f3b304"/><circle cx="793.8" cy="607.12" r="7.01" fill="#f3b304"/><circle cx="840.19" cy="607.12" r="7.01" fill="#f3b304"/><circle cx="886.57" cy="607.12" r="7.01" fill="#f3b304"/><circle cx="932.96" cy="607.12" r="7.01" fill="#f3b304"/><circle cx="979.34" cy="607.12" r="7.01" fill="#f3b304"/><circle cx="1025.73" cy="607.12" r="7.01" fill="#f3b304"/><circle cx="1072.11" cy="607.12" r="7.01" fill="#f3b304"/><circle cx="1118.5" cy="607.12" r="7.01" fill="#f3b304"/><circle cx="1164.88" cy="607.12" r="7.01" fill="#f3b304"/><circle cx="1211.27" cy="607.12" r="7.01" fill="#f3b304"/><circle cx="1257.65" cy="607.12" r="7.01" fill="#f3b304"/><circle cx="1304.03" cy="607.12" r="7.01" fill="#f3b304"/><circle cx="1350.42" cy="607.12" r="7.01" fill="#f3b304"/><circle cx="608.26" cy="573.54" r="7.01" fill="#f3b304"/><circle cx="654.65" cy="573.54" r="7.01" fill="#f3b304"/><circle cx="701.03" cy="573.54" r="7.01" fill="#f3b304"/><circle cx="747.42" cy="573.54" r="7.01" fill="#f3b304"/><circle cx="793.8" cy="573.54" r="7.01" fill="#f3b304"/><circle cx="840.19" cy="573.54" r="7.01" fill="#f3b304"/><circle cx="886.57" cy="573.54" r="7.01" fill="#f3b304"/><circle cx="932.96" cy="573.54" r="7.01" fill="#f3b304"/><circle cx="979.34" cy="573.54" r="7.01" fill="#f3b304"/><circle cx="1025.73" cy="573.54" r="7.01" fill="#f3b304"/><circle cx="1072.11" cy="573.54" r="7.01" fill="#f3b304"/><circle cx="1118.5" cy="573.54" r="7.01" fill="#f3b304"/><circle cx="1164.88" cy="573.54" r="7.01" fill="#f3b304"/><circle cx="1211.27" cy="573.54" r="7.01" fill="#f3b304"/><circle cx="1257.65" cy="573.54" r="7.01" fill="#f3b304"/><circle cx="1304.03" cy="573.54" r="7.01" fill="#f3b304"/><circle cx="1350.42" cy="573.54" r="7.01" fill="#f3b304"/><circle cx="608.26" cy="666.92" r="7.01" fill="#f3b304"/><circle cx="561.88" cy="666.92" r="7.01" fill="#f3b304"/><circle cx="654.65" cy="666.92" r="7.01" fill="#f3b304"/><circle cx="701.03" cy="666.92" r="7.01" fill="#f3b304"/><circle cx="747.42" cy="666.92" r="7.01" fill="#f3b304"/><circle cx="793.8" cy="666.92" r="7.01" fill="#f3b304"/><circle cx="840.19" cy="666.92" r="7.01" fill="#f3b304"/><circle cx="886.57" cy="666.92" r="7.01" fill="#f3b304"/><circle cx="932.96" cy="666.92" r="7.01" fill="#f3b304"/><circle cx="979.34" cy="666.92" r="7.01" fill="#f3b304"/><circle cx="1025.73" cy="666.92" r="7.01" fill="#f3b304"/><circle cx="1072.11" cy="666.92" r="7.01" fill="#f3b304"/><circle cx="1118.5" cy="666.92" r="7.01" fill="#f3b304"/><circle cx="1164.88" cy="666.92" r="7.01" fill="#f3b304"/><circle cx="1211.27" cy="666.92" r="7.01" fill="#f3b304"/><circle cx="1257.65" cy="666.92" r="7.01" fill="#f3b304"/><circle cx="1304.03" cy="666.92" r="7.01" fill="#f3b304"/><circle cx="1350.42" cy="666.92" r="7.01" fill="#f3b304"/><circle cx="190.8" cy="817.91" r="7.01" fill="#f3b304"/><circle cx="237.18" cy="817.91" r="7.01" fill="#f3b304"/><circle cx="283.57" cy="817.91" r="7.01" fill="#f3b304"/><circle cx="329.95" cy="817.91" r="7.01" fill="#f3b304"/><circle cx="376.34" cy="817.91" r="7.01" fill="#f3b304"/><circle cx="422.72" cy="817.91" r="7.01" fill="#f3b304"/><circle cx="469.11" cy="817.91" r="7.01" fill="#f3b304"/><circle cx="515.49" cy="817.91" r="7.01" fill="#f3b304"/><circle cx="561.88" cy="817.91" r="7.01" fill="#f3b304"/><circle cx="608.26" cy="817.91" r="7.01" fill="#f3b304"/><circle cx="654.65" cy="817.91" r="7.01" fill="#f3b304"/><circle cx="701.03" cy="817.91" r="7.01" fill="#f3b304"/><circle cx="747.42" cy="817.91" r="7.01" fill="#f3b304"/><circle cx="793.8" cy="817.91" r="7.01" fill="#f3b304"/><circle cx="840.19" cy="817.91" r="7.01" fill="#f3b304"/><circle cx="886.57" cy="817.91" r="7.01" fill="#f3b304"/><circle cx="932.96" cy="817.91" r="7.01" fill="#f3b304"/><circle cx="979.34" cy="817.91" r="7.01" fill="#f3b304"/><circle cx="190.8" cy="788.01" r="7.01" fill="#f3b304"/><circle cx="237.18" cy="788.01" r="7.01" fill="#f3b304"/><circle cx="283.57" cy="788.01" r="7.01" fill="#f3b304"/><circle cx="329.95" cy="788.01" r="7.01" fill="#f3b304"/><circle cx="376.34" cy="788.01" r="7.01" fill="#f3b304"/><circle cx="422.72" cy="788.01" r="7.01" fill="#f3b304"/><circle cx="469.11" cy="788.01" r="7.01" fill="#f3b304"/><circle cx="515.49" cy="788.01" r="7.01" fill="#f3b304"/><circle cx="561.88" cy="788.01" r="7.01" fill="#f3b304"/><circle cx="608.26" cy="788.01" r="7.01" fill="#f3b304"/><circle cx="654.65" cy="788.01" r="7.01" fill="#f3b304"/><circle cx="701.03" cy="788.01" r="7.01" fill="#f3b304"/><circle cx="747.42" cy="788.01" r="7.01" fill="#f3b304"/><circle cx="793.8" cy="788.01" r="7.01" fill="#f3b304"/><circle cx="840.19" cy="788.01" r="7.01" fill="#f3b304"/><circle cx="886.57" cy="788.01" r="7.01" fill="#f3b304"/><circle cx="932.96" cy="788.01" r="7.01" fill="#f3b304"/><circle cx="979.34" cy="788.01" r="7.01" fill="#f3b304"/><circle cx="1025.73" cy="788.01" r="7.01" fill="#f3b304"/><circle cx="190.8" cy="847.81" r="7.01" fill="#f3b304"/><circle cx="237.18" cy="847.81" r="7.01" fill="#f3b304"/><circle cx="283.57" cy="847.81" r="7.01" fill="#f3b304"/><circle cx="329.95" cy="847.81" r="7.01" fill="#f3b304"/><circle cx="376.34" cy="847.81" r="7.01" fill="#f3b304"/><circle cx="422.72" cy="847.81" r="7.01" fill="#f3b304"/><circle cx="469.11" cy="847.81" r="7.01" fill="#f3b304"/><circle cx="515.49" cy="847.81" r="7.01" fill="#f3b304"/><circle cx="561.88" cy="847.81" r="7.01" fill="#f3b304"/><circle cx="608.26" cy="847.81" r="7.01" fill="#f3b304"/><circle cx="654.65" cy="847.81" r="7.01" fill="#f3b304"/><circle cx="701.03" cy="847.81" r="7.01" fill="#f3b304"/><circle cx="747.42" cy="847.81" r="7.01" fill="#f3b304"/><circle cx="793.8" cy="847.81" r="7.01" fill="#f3b304"/><circle cx="840.19" cy="847.81" r="7.01" fill="#f3b304"/><circle cx="886.57" cy="847.81" r="7.01" fill="#f3b304"/><circle cx="932.96" cy="847.81" r="7.01" fill="#f3b304"/><circle cx="190.8" cy="879.37" r="7.01" fill="#f3b304"/><circle cx="237.18" cy="879.37" r="7.01" fill="#f3b304"/><circle cx="283.57" cy="879.37" r="7.01" fill="#f3b304"/><circle cx="190.8" cy="909.38" r="7.01" fill="#f3b304"/><circle cx="143.47" cy="728.21" r="7.01" fill="#f3b304"/><circle cx="143.47" cy="698.31" r="7.01" fill="#f3b304"/><circle cx="143.47" cy="758.11" r="7.01" fill="#f3b304"/><circle cx="143.47" cy="817.91" r="7.01" fill="#f3b304"/><circle cx="143.47" cy="788.01" r="7.01" fill="#f3b304"/><circle cx="143.47" cy="847.81" r="7.01" fill="#f3b304"/><circle cx="143.47" cy="879.37" r="7.01" fill="#f3b304"/><circle cx="143.47" cy="909.38" r="7.01" fill="#f3b304"/><circle cx="237.18" cy="909.38" r="7.01" fill="#f3b304"/><circle cx="283.57" cy="909.38" r="7.01" fill="#f3b304"/><circle cx="608.26" cy="879.37" r="7.01" fill="#f3b304"/><circle cx="654.65" cy="879.37" r="7.01" fill="#f3b304"/><circle cx="793.8" cy="879.37" r="7.01" fill="#f3b304"/><circle cx="840.19" cy="879.37" r="7.01" fill="#f3b304"/><circle cx="886.57" cy="879.37" r="7.01" fill="#f3b304"/><circle cx="793.8" cy="909.38" r="7.01" fill="#f3b304"/><circle cx="840.19" cy="909.38" r="7.01" fill="#f3b304"/><circle cx="886.57" cy="909.38" r="7.01" fill="#f3b304"/><ellipse cx="209.1" cy="638.01" rx="25.31" ry="27.96" fill="#fff" stroke="#f3b304" stroke-linecap="round" stroke-linejoin="round" stroke-width="5"/><path d="M239.32,666c14,0,25.31-12.51,25.31-28s-11.33-28-25.31-28H209.1c14,0,25.3,12.52,25.3,28s-11.33,28-25.3,28Z" fill="#f3b304" stroke="#f3b304" stroke-linecap="round" stroke-linejoin="round" stroke-width="5"/><ellipse cx="940.03" cy="551.52" rx="25.31" ry="27.96" fill="#fff" stroke="#f3b304" stroke-linecap="round" stroke-linejoin="round" stroke-width="5"/><path d="M970.26,579.48c14,0,25.3-12.52,25.3-28s-11.33-28-25.3-28H940c14,0,25.31,12.52,25.31,28s-11.33,28-25.31,28Z" fill="#f3b304" stroke="#f3b304" stroke-linecap="round" stroke-linejoin="round" stroke-width="5"/></g><g id="BRIDGE"><line x1="3267.62" y1="949.91" x2="750.01" y2="949.91" fill="none" stroke="#59221d" stroke-miterlimit="10" stroke-width="5"/><path d="M2148.5,949.91H1531.21c53.06-99.82,171.3-169.28,308.66-169.28S2095.44,850.09,2148.5,949.91Z" fill="none" stroke="#59221d" stroke-linecap="round" stroke-miterlimit="10" stroke-width="5"/><path d="M1531.21,949.91H913.92c53.06-99.82,171.3-169.28,308.66-169.28S1478.15,850.09,1531.21,949.91Z" fill="none" stroke="#59221d" stroke-linecap="round" stroke-miterlimit="10" stroke-width="5"/><line x1="1222.58" y1="780.63" x2="1222.58" y2="949.91" fill="none" stroke="#59221d" stroke-linecap="round" stroke-miterlimit="10" stroke-width="5"/><line x1="1145.6" y1="787.96" x2="1145.6" y2="949.91" fill="none" stroke="#59221d" stroke-linecap="round" stroke-miterlimit="10" stroke-width="5"/><line x1="1068.62" y1="812.88" x2="1068.62" y2="949.91" fill="none" stroke="#59221d" stroke-linecap="round" stroke-miterlimit="10" stroke-width="5"/><line x1="991.64" y1="858.33" x2="991.64" y2="949.91" fill="none" stroke="#59221d" stroke-linecap="round" stroke-miterlimit="10" stroke-width="5"/><line x1="1454.23" y1="858.33" x2="1454.23" y2="949.91" fill="none" stroke="#59221d" stroke-linecap="round" stroke-miterlimit="10" stroke-width="5"/><line x1="1377.25" y1="812.88" x2="1377.25" y2="949.91" fill="none" stroke="#59221d" stroke-linecap="round" stroke-miterlimit="10" stroke-width="5"/><line x1="1300.27" y1="789.42" x2="1300.27" y2="949.91" fill="none" stroke="#59221d" stroke-linecap="round" stroke-miterlimit="10" stroke-width="5"/><line x1="1840.91" y1="780.63" x2="1840.91" y2="949.91" fill="none" stroke="#59221d" stroke-linecap="round" stroke-miterlimit="10" stroke-width="5"/><line x1="1763.93" y1="787.96" x2="1763.93" y2="949.91" fill="none" stroke="#59221d" stroke-linecap="round" stroke-miterlimit="10" stroke-width="5"/><line x1="1686.95" y1="812.88" x2="1686.95" y2="949.91" fill="none" stroke="#59221d" stroke-linecap="round" stroke-miterlimit="10" stroke-width="5"/><line x1="1609.96" y1="858.33" x2="1609.96" y2="949.91" fill="none" stroke="#59221d" stroke-linecap="round" stroke-miterlimit="10" stroke-width="5"/><line x1="2072.56" y1="860.33" x2="2072.56" y2="949.91" fill="none" stroke="#59221d" stroke-linecap="round" stroke-miterlimit="10" stroke-width="5"/><line x1="1995.58" y1="812.88" x2="1995.58" y2="949.91" fill="none" stroke="#59221d" stroke-linecap="round" stroke-miterlimit="10" stroke-width="5"/><line x1="1918.6" y1="789.42" x2="1918.6" y2="949.91" fill="none" stroke="#59221d" stroke-linecap="round" stroke-miterlimit="10" stroke-width="5"/><path d="M1913.51,949.91c-72.34,0-131,52.12-131,116.43" fill="none" stroke="#59221d" stroke-linecap="round" stroke-miterlimit="10" stroke-width="5"/><path d="M1652.09,949.91c72.34,0,131,52.12,131,116.43" fill="none" stroke="#59221d" stroke-linecap="round" stroke-miterlimit="10" stroke-width="5"/><path d="M2414.48,949.91c-72.34,0-131,52.12-131,116.43" fill="none" stroke="#59221d" stroke-linecap="round" stroke-miterlimit="10" stroke-width="5"/><path d="M2153.06,949.91c72.34,0,131,52.12,131,116.43" fill="none" stroke="#59221d" stroke-linecap="round" stroke-miterlimit="10" stroke-width="5"/><path d="M1411.39,949.91c-72.34,0-131,52.12-131,116.43" fill="none" stroke="#59221d" stroke-linecap="round" stroke-miterlimit="10" stroke-width="5"/><path d="M1150,949.91c72.34,0,131,52.12,131,116.43" fill="none" stroke="#59221d" stroke-linecap="round" stroke-miterlimit="10" stroke-width="5"/></g><g id="BUILDINGS"><polygon points="1538.41 1567.85 1724.26 1567.85 1602.69 1663.41 1602.69 1742.94 1416.84 1742.94 1416.84 1663.41 1538.41 1567.85" fill="#f3b304"/><polygon points="1724.26 1570.48 1827.25 1644.89 1826.82 1741.62 1605.3 1741.62 1605.3 1662.67 1724.26 1570.48" fill="#fff" stroke="#f3b304" stroke-linecap="round" stroke-linejoin="round" stroke-width="5"/><rect x="1703.11" y="1641.37" width="18.91" height="18.91" fill="#59221d"/><rect x="1731.03" y="1641.37" width="18.91" height="18.91" fill="#59221d"/><rect x="1703.11" y="1668.26" width="18.91" height="18.91" fill="#59221d"/><rect x="1731.03" y="1668.26" width="18.91" height="18.91" fill="#59221d"/><polygon points="2098.89 1740.3 1894.46 1740.3 1996.47 1637.25 1996.89 1637.25 2098.89 1740.3" fill="#98c8db"/><polygon points="1996.47 1637.25 1894.46 1740.3 1718.21 1740.3 1820.22 1637.25 1996.47 1637.25" fill="#59221d"/><rect x="88.67" y="1047.24" width="148.6" height="480.22" stroke-width="5" stroke="#f3b304" stroke-linecap="round" stroke-linejoin="round" fill="#fff"/><polygon points="318.37 1524.78 234.21 1524.78 234.21 1047.24 318.37 951.37 318.37 1524.78" fill="#f5bbbb"/><polygon points="234.38 1047.2 86.36 1047.2 169.02 953.37 317.05 953.37 234.38 1047.2" fill="#f3b304"/><polygon points="698.97 1197.8 566.39 1082.37 566.39 951.06 698.97 893.35 698.97 1197.8" fill="#fff" stroke="#f3b304" stroke-linecap="round" stroke-linejoin="round" stroke-width="5"/><polygon points="854.54 1166.69 854.54 1301 696.28 1301 696.28 890.88 750.04 890.88 750.04 1166.69 854.54 1166.69" fill="#f5bbbb"/><path d="M617.18,1197.8v329.66l-298.8-.54V892.32a15,15,0,0,1,15-15H484.75a15.3,15.3,0,0,1,3.41.39,15,15,0,0,1,11.55,14.57v201.6Z" fill="#fff" stroke="#f3b304" stroke-linecap="round" stroke-linejoin="round" stroke-width="5"/><path d="M699.65,1197.8V1529H617.18V1197.8L499.71,1093.92V892.32a15,15,0,0,0-11.55-14.57v-2.7h63.06a15.17,15.17,0,0,1,15.17,15.17v192.15Z" fill="#f3b304"/><path d="M1082,1166.05v361.41h-76.19V1167.2a119.43,119.43,0,0,0-119.43-119.43h-1.74v-1.16h77.92A119.43,119.43,0,0,1,1082,1166.05Z" fill="#59221d"/><path d="M1005.84,1167.2v360.26H698.5V1300.73H854.65v-253h31.76A119.43,119.43,0,0,1,1005.84,1167.2Z" fill="#fff" stroke="#f3b304" stroke-linecap="round" stroke-linejoin="round" stroke-width="5"/><path d="M879.56,1120.34h81.38a11.39,11.39,0,0,1,11.39,11.39v1.76a0,0,0,0,1,0,0H879.56a0,0,0,0,1,0,0v-13.15A0,0,0,0,1,879.56,1120.34Z" fill="#98c8db"/><rect x="879.56" y="1162.18" width="92.77" height="13.15" fill="#98c8db"/><rect x="879.56" y="1204.03" width="92.77" height="13.15" fill="#98c8db"/><rect x="879.56" y="1245.87" width="92.77" height="13.15" fill="#98c8db"/><rect x="879.56" y="1287.71" width="92.77" height="13.15" fill="#98c8db"/><rect x="879.56" y="1326.09" width="92.77" height="13.15" fill="#98c8db"/><rect x="879.56" y="1367.94" width="92.77" height="13.15" fill="#98c8db"/><rect x="879.56" y="1409.78" width="92.77" height="13.15" fill="#98c8db"/><rect x="879.56" y="1451.62" width="92.77" height="13.15" fill="#98c8db"/><polygon points="412.35 1525.15 412.35 1329.09 614.72 1525.46 412.35 1525.15" fill="#59221d"/><polygon points="2.5 1527.46 410.19 1527.46 410.19 1329.25 321.11 1374.27 2.5 1374.27 2.5 1527.46" fill="#fff" stroke="#f3b304" stroke-linecap="round" stroke-linejoin="round" stroke-width="5"/><polygon points="407.96 1524 321.66 1524 321.66 1376.82 407.96 1331.8 407.96 1524" fill="#98c8db"/><circle cx="162.78" cy="1449.89" r="7.01" fill="#f3b304"/><circle cx="116.4" cy="1449.89" r="7.01" fill="#f3b304"/><circle cx="209.17" cy="1449.89" r="7.01" fill="#f3b304"/><circle cx="255.55" cy="1449.89" r="7.01" fill="#f3b304"/><circle cx="162.78" cy="1419.99" r="7.01" fill="#f3b304"/><circle cx="116.4" cy="1419.99" r="7.01" fill="#f3b304"/><circle cx="209.17" cy="1419.99" r="7.01" fill="#f3b304"/><circle cx="255.55" cy="1419.99" r="7.01" fill="#f3b304"/><circle cx="162.78" cy="1479.79" r="7.01" fill="#f3b304"/><circle cx="116.4" cy="1479.79" r="7.01" fill="#f3b304"/><circle cx="209.17" cy="1479.79" r="7.01" fill="#f3b304"/><circle cx="255.55" cy="1479.79" r="7.01" fill="#f3b304"/><circle cx="69.07" cy="1449.89" r="7.01" fill="#f3b304"/><circle cx="69.07" cy="1419.99" r="7.01" fill="#f3b304"/><circle cx="69.07" cy="1479.79" r="7.01" fill="#f3b304"/><polygon points="410.67 1326.09 90.23 1326.09 0.19 1371.96 320.63 1371.96 410.67 1326.09" fill="#f3b304"/><rect x="2345.86" y="1418.21" width="258.52" height="109.25" fill="#59221d"/><polygon points="2724.77 1326.53 2603.92 1418.21 2345.86 1418.21 2466.72 1326.53 2724.77 1326.53" fill="#f3b304"/><polygon points="2845.63 1418.21 2845.63 1527.46 2604.38 1527.46 2604.38 1418.21 2603.92 1418.21 2724.77 1329.34 2845.63 1418.21" fill="#fff" stroke="#f3b304" stroke-linecap="round" stroke-linejoin="round" stroke-width="5"/><rect x="2702.98" y="1430.91" width="21.1" height="21.1" fill="#59221d"/><rect x="2734.15" y="1430.91" width="21.1" height="21.1" fill="#59221d"/><rect x="2702.98" y="1460.93" width="21.1" height="21.1" fill="#59221d"/><rect x="2734.15" y="1460.93" width="21.1" height="21.1" fill="#59221d"/><polygon points="2294.14 1527.46 2604.38 1527.46 2455.84 1418.21 2294.14 1527.46" fill="#fff" stroke="#f3b304" stroke-linecap="round" stroke-linejoin="round" stroke-width="5"/><polygon points="2292.14 1529.66 2035.48 1529.66 2196.97 1418.01 2457.63 1418.01 2292.14 1529.66" fill="#f3b304"/><polygon points="3357.05 1738.94 3249.97 1738.94 3249.97 1521.31 3560.28 1521.31 3357.05 1738.94" fill="#98c8db"/><polygon points="3522.19 1431.1 3522.19 1520.99 3261.16 1520.99 3261.16 1425.9 3403.85 1326.53 3522.19 1431.1" fill="#fff" stroke="#f3b304" stroke-linecap="round" stroke-linejoin="round" stroke-width="5"/><polygon points="3405.01 1324.22 3063.57 1324.22 2919.72 1425.91 3261.16 1425.91 3405.01 1324.22" fill="#f3b304"/><rect x="2919.72" y="1425.91" width="341.43" height="95.08" fill="#59221d"/><polygon points="3015.16 1249.01 3015.02 1249.29 2973.54 1326.53 2973.54 1595.17 2842.94 1595.17 2842.94 1326.53 2884.56 1249.01 3015.16 1249.01" fill="#f3b304"/><polygon points="3062.41 1326.53 3062.41 1595.17 2973.54 1595.17 2973.54 1326.53 3015.01 1251.6 3062.41 1326.53" fill="#fff" stroke="#f3b304" stroke-linecap="round" stroke-linejoin="round" stroke-width="5"/><rect x="2938.62" y="1215.74" width="22.47" height="54.5" rx="11.23" fill="none" stroke="#59221d" stroke-miterlimit="10" stroke-width="5"/><ellipse cx="2949.86" cy="1225.01" rx="11.23" ry="10.97" fill="#fff" stroke="#59221d" stroke-linecap="round" stroke-miterlimit="10" stroke-width="5"/><ellipse cx="3017.98" cy="1345.92" rx="11.23" ry="10.97" fill="#59221d"/><ellipse cx="3017.98" cy="1410.56" rx="11.23" ry="10.97" fill="#59221d"/><ellipse cx="3017.98" cy="1475.2" rx="11.23" ry="10.97" fill="#59221d"/><rect x="2973.55" y="1595.17" width="198.43" height="148.77" fill="#59221d"/><polygon points="3354 1595.63 3354 1741.94 3171.97 1741.94 3171.97 1595.44 3261.16 1520.99 3354 1595.63" fill="#fff" stroke="#f3b304" stroke-linecap="round" stroke-miterlimit="10" stroke-width="5"/><rect x="3239.41" y="1617.55" width="21.1" height="21.1" fill="#59221d"/><rect x="3270.58" y="1617.55" width="21.1" height="21.1" fill="#59221d"/><rect x="3239.41" y="1647.56" width="21.1" height="21.1" fill="#59221d"/><rect x="3270.58" y="1647.56" width="21.1" height="21.1" fill="#59221d"/><polygon points="3171.97 1595.44 2973.23 1595.44 3062.42 1517.53 3261.16 1517.53 3171.97 1595.44" fill="#f3b304"/><polygon points="3175.44 1677.29 3175.44 1743.94 2973.23 1743.94 2973.23 1677.29 2973.54 1677.29 3069.59 1594.39 3175.44 1677.29" fill="#fff"/><rect x="2744.65" y="1679.59" width="228.88" height="64.34" fill="#f3b304"/><polygon points="3068.7 1595.17 3068.44 1595.39 2972.38 1678.29 2746.81 1678.29 2843.13 1595.17 3068.7 1595.17" fill="#fff" stroke="#f3b304" stroke-linecap="round" stroke-linejoin="round" stroke-width="5"/><line x1="2877.98" y1="1595.39" x2="2781.93" y2="1678.29" fill="none" stroke="#f3b304" stroke-linecap="round" stroke-linejoin="round" stroke-width="5"/><line x1="2914.63" y1="1595.39" x2="2818.57" y2="1678.29" fill="none" stroke="#f3b304" stroke-linecap="round" stroke-linejoin="round" stroke-width="5"/><line x1="2951.28" y1="1595.39" x2="2855.22" y2="1678.29" fill="none" stroke="#f3b304" stroke-linecap="round" stroke-linejoin="round" stroke-width="5"/><line x1="2987.93" y1="1595.39" x2="2891.87" y2="1678.29" fill="none" stroke="#f3b304" stroke-linecap="round" stroke-linejoin="round" stroke-width="5"/><line x1="3024.58" y1="1596.55" x2="2928.52" y2="1679.44" fill="none" stroke="#f3b304" stroke-linecap="round" stroke-linejoin="round" stroke-width="5"/><g id="CLOUD-2" data-name="CLOUD"><path d="M3411.81,993.5C3396,908,3309.14,852.38,3217.89,869.3c-82.92,15.37-140.95,85.34-139,162.17q-3.78.33-7.59,1c-39.27,7.28-65.74,42.09-59.13,77.74s43.8,58.66,83.07,51.38a77.19,77.19,0,0,0,38-18.68c37,31.07,88.76,45.89,142,36C3366.55,1162.06,3427.67,1079,3411.81,993.5Zm-322.26,143.59a13.15,13.15,0,1,1,12.8-13.49A13.15,13.15,0,0,1,3089.55,1137.09Z" fill="#f5bbbb"/><circle cx="2974.69" cy="1161.43" r="20.68" fill="#f5bbbb"/></g><rect x="516.47" y="1742.15" width="156.26" height="387.88" stroke-width="5" stroke="#f3b304" stroke-linecap="round" stroke-linejoin="round" fill="#fff"/><rect x="675.04" y="1739.63" width="63.71" height="392.93" fill="#59221d"/><circle cx="567.47" cy="1789.85" r="8.68" fill="none" stroke="#f3b304" stroke-linecap="round" stroke-miterlimit="10" stroke-width="5"/><circle cx="617.11" cy="1789.85" r="8.68" fill="none" stroke="#f3b304" stroke-linecap="round" stroke-miterlimit="10" stroke-width="5"/><circle cx="567.47" cy="1835.16" r="8.68" fill="none" stroke="#f3b304" stroke-linecap="round" stroke-miterlimit="10" stroke-width="5"/><circle cx="617.11" cy="1835.16" r="8.68" fill="none" stroke="#f3b304" stroke-linecap="round" stroke-miterlimit="10" stroke-width="5"/><circle cx="567.47" cy="1880.47" r="8.68" fill="none" stroke="#f3b304" stroke-linecap="round" stroke-miterlimit="10" stroke-width="5"/><circle cx="617.11" cy="1880.47" r="8.68" fill="none" stroke="#f3b304" stroke-linecap="round" stroke-miterlimit="10" stroke-width="5"/><circle cx="567.47" cy="1971.08" r="8.68" fill="none" stroke="#f3b304" stroke-linecap="round" stroke-miterlimit="10" stroke-width="5"/><circle cx="567.47" cy="1925.77" r="8.68" fill="none" stroke="#f3b304" stroke-linecap="round" stroke-miterlimit="10" stroke-width="5"/><circle cx="617.11" cy="1925.77" r="8.68" fill="none" stroke="#f3b304" stroke-linecap="round" stroke-miterlimit="10" stroke-width="5"/><polygon points="345.26 2132.56 514.16 2132.56 514.16 1742.5 345.26 1871.78 345.26 2132.56" fill="#f5bbbb"/><polygon points="672.3 1947.13 951.51 1947.13 794.52 2044.11 794.52 2137.17 514.01 2137.17 514.01 2044.11 672.3 1947.13" fill="#f3b304"/><polygon points="915.34 1947.14 758.36 2044.11 747.36 2044.11 904.36 1947.14 915.34 1947.14" fill="#fff"/><polygon points="865.38 1947.14 708.39 2044.11 697.4 2044.11 854.39 1947.14 865.38 1947.14" fill="#fff"/><polygon points="815.41 1947.14 658.42 2044.11 647.43 2044.11 804.42 1947.14 815.41 1947.14" fill="#fff"/><polygon points="765.44 1947.14 608.47 2044.11 597.46 2044.11 754.45 1947.14 765.44 1947.14" fill="#fff"/><polygon points="715.47 1947.14 558.5 2044.11 547.5 2044.11 704.48 1947.14 715.47 1947.14" fill="#fff"/><polygon points="1112.79 2056.64 950.31 1947.13 794.52 2044.11 794.52 2137.17 995.37 2137.17 1112.79 2056.64" fill="#59221d"/><rect x="919.11" y="2039.16" width="21.1" height="21.1" fill="#fff"/><rect x="950.27" y="2039.16" width="21.1" height="21.1" fill="#fff"/><rect x="919.11" y="2069.17" width="21.1" height="21.1" fill="#fff"/><rect x="950.27" y="2069.17" width="21.1" height="21.1" fill="#fff"/><polygon points="1422.98 2134.72 995.37 2134.72 1113.8 2058.84 1301.83 2058.84 1422.98 2134.72" fill="none" stroke="#59221d" stroke-linecap="round" stroke-miterlimit="10" stroke-width="5"/><line x1="1095.4" y1="2073.82" x2="1095.4" y2="2134.72" fill="none" stroke="#59221d" stroke-linecap="round" stroke-miterlimit="10" stroke-width="5"/><line x1="1133.42" y1="2058.84" x2="1133.42" y2="2134.72" fill="none" stroke="#59221d" stroke-linecap="round" stroke-miterlimit="10" stroke-width="5"/><line x1="1171.43" y1="2058.84" x2="1171.43" y2="2134.72" fill="none" stroke="#59221d" stroke-linecap="round" stroke-miterlimit="10" stroke-width="5"/><line x1="1209.45" y1="2058.84" x2="1209.45" y2="2134.72" fill="none" stroke="#59221d" stroke-linecap="round" stroke-miterlimit="10" stroke-width="5"/><line x1="1247.46" y1="2058.84" x2="1247.46" y2="2134.72" fill="none" stroke="#59221d" stroke-linecap="round" stroke-miterlimit="10" stroke-width="5"/><line x1="1285.48" y1="2058.84" x2="1285.48" y2="2134.72" fill="none" stroke="#59221d" stroke-linecap="round" stroke-miterlimit="10" stroke-width="5"/><line x1="1323.49" y1="2076.54" x2="1323.49" y2="2134.72" fill="none" stroke="#59221d" stroke-linecap="round" stroke-miterlimit="10" stroke-width="5"/><line x1="1361.51" y1="2098.32" x2="1361.51" y2="2134.72" fill="none" stroke="#59221d" stroke-linecap="round" stroke-miterlimit="10" stroke-width="5"/><line x1="1057.39" y1="2096.78" x2="1057.39" y2="2134.72" fill="none" stroke="#59221d" stroke-linecap="round" stroke-miterlimit="10" stroke-width="5"/><line x1="1008.15" y1="1446.43" x2="1306.81" y2="1446.43" fill="none" stroke="#fff" stroke-miterlimit="10" stroke-width="5"/><line x1="1044.35" y1="1446.97" x2="1044.35" y2="1524" fill="none" stroke="#fff" stroke-miterlimit="10" stroke-width="5"/><line x1="1081.09" y1="1446.97" x2="1081.09" y2="1524" fill="none" stroke="#fff" stroke-miterlimit="10" stroke-width="5"/><line x1="1117.84" y1="1446.97" x2="1117.84" y2="1524" fill="none" stroke="#fff" stroke-miterlimit="10" stroke-width="5"/><line x1="1154.59" y1="1446.97" x2="1154.59" y2="1524" fill="none" stroke="#fff" stroke-miterlimit="10" stroke-width="5"/><line x1="1191.33" y1="1446.97" x2="1191.33" y2="1524" fill="none" stroke="#fff" stroke-miterlimit="10" stroke-width="5"/><line x1="1228.08" y1="1446.97" x2="1228.08" y2="1524" fill="none" stroke="#fff" stroke-miterlimit="10" stroke-width="5"/><line x1="1264.82" y1="1446.97" x2="1264.82" y2="1524" fill="none" stroke="#fff" stroke-miterlimit="10" stroke-width="5"/></g><g id="MOUNTAIN"><path d="M2089.62,339.48l225.74-135.17c65.3-39.09,144.12-35.64,206.54,9.05l21,15L2814,25.36c36.33-27.21,83.71-26.45,119.35,1.91l166.54,132.59,32.58-26.23c37.5-30.17,88.81-25.28,121.31,11.57" fill="none" stroke="#59221d" stroke-linecap="round" stroke-linejoin="round" stroke-width="5"/><path d="M2582.71,293.16l-120.59-84.29c-30-20.65-53-29.58-86.19-28.07,49.81-10,102,1.06,146,32.56l21,15.06Z" fill="none" stroke="#59221d" stroke-linecap="round" stroke-linejoin="round" stroke-width="5"/><path d="M3119.13,235.2,2911.93,36.09C2895.36,20.17,2879.2,6,2857.54,7L2874,5.81a101.66,101.66,0,0,1,64.1,22.74l161.81,131.3Z" fill="none" stroke="#59221d" stroke-linecap="round" stroke-linejoin="round" stroke-width="5"/></g><g id="TREES"><path d="M3354.64,1745.29v390l-1278.08,2.31L2191,2014.34a481.78,481.78,0,0,1,317.37-119.42h145.71c59.57,0,117.35,2.56,163.69-35.05l67.27-54.58a268.21,268.21,0,0,1,169-60Z" fill="#f5bbbb"/><line x1="2902.38" y1="954.83" x2="1765.8" y2="1525.19" fill="none" stroke="#f3b304" stroke-linecap="round" stroke-linejoin="round" stroke-width="5"/><polygon points="2841.57 982.82 2770.38 788.29 2693.14 1057.47 2841.57 982.82" fill="#59221d"/><polygon points="2794.82 855.07 2772.88 889.73 2772.88 1017.37 2767.88 1019.88 2767.88 998.21 2724.34 948.73 2725.98 943.01 2767.88 990.62 2767.88 797 2770.38 788.29 2772.88 795.12 2772.88 880.39 2792.65 849.15 2794.82 855.07" fill="#fff"/><polygon points="2223.55 1058.47 2284.27 1262.37 2168.19 1320.75 2223.55 1058.47" fill="#59221d"/><polygon points="2248.55 1142.42 2226.05 1178.76 2226.05 1291.65 2221.05 1294.17 2221.05 1237.88 2190.75 1213.87 2191.9 1208.4 2221.05 1231.49 2221.05 1070.31 2223.55 1058.47 2226.05 1066.87 2226.05 1169.27 2246.64 1136.01 2248.55 1142.42" fill="#fff"/><polygon points="1626.04 1525.19 1701.22 1289.14 1758.8 1525.19 1626.04 1525.19" fill="#59221d"/><polygon points="1725.5 1388.66 1702.57 1419.94 1702.57 1524.82 1697.57 1524.82 1697.57 1499.76 1655.92 1431.37 1657.93 1425.06 1697.57 1490.15 1697.57 1300.6 1701.22 1289.14 1702.57 1294.67 1702.57 1411.73 1723.95 1382.32 1725.5 1388.66" fill="#fff"/><polygon points="1958.58 1524.67 1999.05 1424.1 2031.82 1524.67 1958.58 1524.67" fill="#59221d"/><polygon points="1921.85 1319.76 1971.67 1525.32 1851.1 1525.32 1921.85 1319.76" fill="#f3b304"/><polygon points="1957.66 1467.51 1924.35 1498.9 1924.35 1525.04 1919.35 1525.04 1919.35 1466.56 1891.9 1406.77 1894.26 1399.92 1919.35 1454.57 1919.35 1327.02 1921.85 1319.76 1924.35 1330.08 1924.35 1492.02 1956.3 1461.91 1957.66 1467.51" fill="#fff"/><polygon points="1640.68 1826.48 1757.35 2136.47 1537.35 2136.47 1640.68 1826.48" fill="#59221d"/><path d="M1678.65,1927.37l-35.09,49v160.08a2.89,2.89,0,0,1-5.77,0v-63.16l-60.42-56.93,2-6,58.4,55V1835.14l2.88-8.66,2.89,7.66v132.32l32.64-45.59Z" fill="#f3b304"/><polygon points="1778.79 1977.92 1855.35 2137.63 1689.95 2137.63 1778.79 1977.92" fill="#f3b304"/><polygon points="1806.3 2035.31 1781.29 2076.25 1781.29 2137.62 1776.29 2137.62 1776.29 1982.41 1778.79 1977.92 1781.29 1983.13 1781.29 2066.67 1803.73 2029.94 1806.3 2035.31" fill="#fff"/><polygon points="2065.42 1889.45 2131.98 2138.78 1988.36 2138.78 2065.42 1889.45" fill="#59221d"/><polygon points="2095.52 2002.22 2097.16 2008.35 2097.16 2008.36 2068.3 2036.43 2068.3 2138.31 2062.53 2138.31 2062.53 2097.41 2016.5 2047.72 2018.39 2041.61 2062.53 2088.91 2062.53 1898.79 2065.42 1889.45 2068.3 1900.25 2068.3 2028.38 2095.52 2002.22" fill="#f3b304"/><polygon points="2357.83 1227.37 2317.23 1112.29 2265.08 1274.02 2357.83 1227.37" fill="#f3b304"/><polygon points="2357.83 1227.37 2319.73 1246.53 2314.73 1249.05 2265.08 1274.02 2295.11 1180.89 2296.81 1175.62 2314.73 1120.04 2317.23 1112.29 2319.73 1119.38 2357.83 1227.37" fill="#f3b304"/><polygon points="2319.73 1119.38 2319.73 1246.53 2314.73 1249.05 2314.73 1199.44 2295.11 1180.89 2296.81 1175.62 2314.73 1192.56 2314.73 1120.04 2317.23 1112.29 2319.73 1119.38" fill="#fff"/><polygon points="150.64 2135.88 238.63 1789.85 331.17 2135.88 150.64 2135.88" fill="#59221d"/><path d="M285.68,1965.77h0l-44.16,57.06-3,113a2.89,2.89,0,0,1-5.77,0l3-138.28-36.18-54.12,1.91-7.53,34.27,51.28v-186l2.89-11.35,2.88,10.8V1902L261.93,1877l1.84,6.88-22.25,27.32v102.26l42.29-54.65Z" fill="#f3b304"/><path d="M2717.26,1048.33l-125.84,63.29-11.29,5.68-101.24,50.93a90.26,90.26,0,1,1,114.24-110,80.25,80.25,0,0,1,124.13-9.88Z" fill="#f3b304"/><ellipse cx="2004.68" cy="1051.48" rx="40.48" ry="75.09" fill="#f5bbbb"/><line x1="2004.68" y1="1044.29" x2="2004.68" y2="1145.17" fill="none" stroke="#f3b304" stroke-linecap="round" stroke-miterlimit="10" stroke-width="5"/><ellipse cx="2111.73" cy="1146.66" rx="58.42" ry="78.99" fill="#f3b304"/><line x1="2111.73" y1="1152.26" x2="2111.73" y2="1237.47" fill="none" stroke="#59221d" stroke-linecap="round" stroke-miterlimit="10" stroke-width="5"/><ellipse cx="1759.14" cy="1200.5" rx="65.74" ry="94.4" fill="#f3b304"/><line x1="1759.14" y1="1194.86" x2="1759.14" y2="1309.39" fill="none" stroke="#59221d" stroke-linecap="round" stroke-miterlimit="10" stroke-width="5"/><ellipse cx="1941.04" cy="1230.21" rx="61.41" ry="67.01" fill="#98c8db"/><line x1="1941.04" y1="1229.27" x2="1941.04" y2="1309.39" fill="none" stroke="#59221d" stroke-linecap="round" stroke-miterlimit="10" stroke-width="5"/><ellipse cx="1811.08" cy="1414.27" rx="50.65" ry="67.64" fill="#f5bbbb"/><line x1="1811.08" y1="1405.99" x2="1811.08" y2="1502.16" fill="none" stroke="#f3b304" stroke-linecap="round" stroke-miterlimit="10" stroke-width="5"/><path d="M2019.15,1397.3c-18.56-37.32-.67-83.94,39.94-104.13s88.58-6.33,107.14,31Z" fill="#f3b304"/><path d="M1301.51,1525l150.68-.22,13.52,0,121.23-.17a96.55,96.55,0,1,0-162.13-50,85.84,85.84,0,0,0-123.3,50.4Z" fill="#f3b304"/><line x1="1514.11" y1="1524.46" x2="1514.11" y2="1465.27" fill="none" stroke="#59221d" stroke-linecap="round" stroke-miterlimit="10" stroke-width="5"/><path d="M3400.25,1523.46c0-36.91,35.49-66.83,79.28-66.83s79.28,29.92,79.28,66.83Z" fill="#59221d"/><ellipse cx="3511.11" cy="1375.34" rx="65.74" ry="94.4" fill="#f3b304"/><line x1="3511.11" y1="1405.49" x2="3511.11" y2="1521.17" fill="none" stroke="#fff" stroke-linecap="round" stroke-miterlimit="10" stroke-width="5"/><path d="M516.47,2136V1958.5H475.1a92.79,92.79,0,0,0-57.56,20.34L376,2011.65a50.23,50.23,0,0,1-31.14,11H319.47c-27.14,0-52.8,13.49-69.75,36.66l-18,24.62H197.58c-26.31,0-49.9,16.48-45.32,52.09Z" fill="#fff" stroke="#f3b304" stroke-linecap="round" stroke-linejoin="round" stroke-width="5"/></g><g id="ROAD"><line x1="1976.73" y1="1527.46" x2="2209.63" y2="1741.94" fill="none" stroke="#59221d" stroke-linecap="round" stroke-miterlimit="10" stroke-width="5"/><line x1="2842.63" y1="1527.46" x2="0.2" y2="1527.46" fill="none" stroke="#59221d" stroke-miterlimit="10" stroke-width="5"/><line x1="3355.64" y1="1741.94" x2="678.61" y2="1741.94" fill="none" stroke="#59221d" stroke-miterlimit="10" stroke-width="5"/><line x1="3354.64" y1="2135.88" x2="149.95" y2="2135.88" fill="none" stroke="#59221d" stroke-miterlimit="10" stroke-width="5"/><path d="M1301.22,1597.8c0-38.85-48.87-70.34-109.15-70.34s-109.16,31.49-109.16,70.34" fill="none" stroke="#59221d" stroke-linecap="round" stroke-miterlimit="10" stroke-width="5"/></g><g id="WIND_TURBINES" data-name="WIND TURBINES"><line x1="633.18" y1="166.92" x2="633.18" y2="487.03" fill="none" stroke="#59221d" stroke-linecap="round" stroke-miterlimit="10" stroke-width="5"/><path d="M644.12,110.53c-1.44,20.81-5.22,39.12-8.59,50.17a1.42,1.42,0,0,1-2.76-.19c-1.82-11.36-3.06-29.87-1.63-50.68,1.69-24.52,6.64-45.57,10.33-55.36C643.78,64.68,645.81,86,644.12,110.53Z" fill="#fff"/><path d="M584.47,184.58A244.89,244.89,0,0,1,628.86,164a1.83,1.83,0,0,1,1.78,3.12c-7.3,6.44-21.06,17-40.2,28.19-21.22,12.4-40.6,20.48-50.77,22.94C546.8,210.62,563.24,197,584.47,184.58Z" fill="#fff"/><path d="M679.71,179.67c19.68,10.24,35.73,22.62,42.37,29.47-9.41-1.51-27.38-8.52-47.06-18.76-15.94-8.29-29.49-16.87-37.6-23.46a1.73,1.73,0,0,1,1.5-3A187.78,187.78,0,0,1,679.71,179.67Z" fill="#fff"/><circle cx="633.86" cy="162.91" r="5.73" fill="#59221d"/><line x1="754.68" y1="237.06" x2="754.68" y2="487.03" fill="none" stroke="#59221d" stroke-linecap="round" stroke-miterlimit="10" stroke-width="5"/><path d="M763.76,190.36c-1.24,17.9-4.49,33.64-7.38,43.13a1.22,1.22,0,0,1-2.38-.16c-1.56-9.77-2.63-25.68-1.4-43.57,1.46-21.08,5.71-39.18,8.88-47.59C763.47,150.94,765.21,169.28,763.76,190.36Z" fill="#fff"/><path d="M712.47,254a211,211,0,0,1,38.17-17.66,1.58,1.58,0,0,1,1.53,2.68c-6.27,5.54-18.11,14.62-34.56,24.24C699.36,273.94,682.7,280.88,674,283,680.09,276.42,694.22,264.69,712.47,254Z" fill="#fff"/><path d="M794.35,249.8c16.93,8.8,30.73,19.46,36.44,25.34-8.1-1.3-23.54-7.32-40.47-16.12-13.7-7.13-25.35-14.51-32.32-20.18a1.48,1.48,0,0,1,1.29-2.59A161.27,161.27,0,0,1,794.35,249.8Z" fill="#fff"/><circle cx="754.94" cy="235.39" r="4.93" fill="#59221d"/><line x1="1085.75" y1="177.31" x2="1085.75" y2="488.18" fill="none" stroke="#59221d" stroke-linecap="round" stroke-miterlimit="10" stroke-width="5"/><path d="M1094.92,124.23c-1.33,19.36-4.85,36.38-8,46.65a1.32,1.32,0,0,1-2.57-.17c-1.69-10.57-2.85-27.78-1.51-47.13,1.57-22.8,6.17-42.37,9.6-51.48C1094.61,81.59,1096.5,101.43,1094.92,124.23Z" fill="#98c8db"/><path d="M1039.45,193.09a227.7,227.7,0,0,1,41.28-19.1,1.7,1.7,0,0,1,1.66,2.89c-6.79,6-19.59,15.82-37.38,26.22-19.74,11.53-37.76,19-47.22,21.33C1004.43,217.31,1019.71,204.63,1039.45,193.09Z" fill="#98c8db"/><path d="M1128,188.52c18.31,9.53,33.23,21,39.41,27.41-8.76-1.4-25.46-7.92-43.77-17.44-14.82-7.71-27.43-15.69-35-21.82a1.61,1.61,0,0,1,1.4-2.81A175.27,175.27,0,0,1,1128,188.52Z" fill="#98c8db"/><circle cx="1085.38" cy="172.94" r="5.33" fill="#59221d"/></g><g id="TRANSPORTATION"><g id="CAR"><ellipse cx="958.2" cy="1723.6" rx="13.84" ry="14.98" fill="#59221d"/><path d="M760.18,1722.3H983.85v-25.25a8.85,8.85,0,0,0-5.16-8l-32.64-12.75-20.66-32.42a9.89,9.89,0,0,0-8.34-4.57H787.68a9.9,9.9,0,0,0-9.63,7.62Z" fill="#fff" stroke="#59221d" stroke-linecap="round" stroke-miterlimit="10" stroke-width="5"/><path d="M780.39,1723.44c0-12.63,9.46-22.87,21.12-22.87s21.12,10.24,21.12,22.87Z" fill="#59221d"/><path d="M890.27,1723.44c0-12.63,9.45-22.87,21.12-22.87s21.12,10.24,21.12,22.87Z" fill="#59221d"/><ellipse cx="801.51" cy="1722.12" rx="12.48" ry="13.51" fill="#fff" stroke="#59221d" stroke-miterlimit="10" stroke-width="5"/><ellipse cx="911.39" cy="1722.12" rx="12.48" ry="13.51" fill="#fff" stroke="#59221d" stroke-miterlimit="10" stroke-width="5"/><path d="M814.33,1650.23v22.52a3.27,3.27,0,0,0,3.4,3.13H854a3.27,3.27,0,0,0,3.4-3.13v-22.52a3.27,3.27,0,0,0-3.4-3.12H817.73A3.27,3.27,0,0,0,814.33,1650.23Z" fill="#98c8db"/><path d="M913.75,1676H869a3.15,3.15,0,0,1-3.38-2.85V1650a3.14,3.14,0,0,1,3.38-2.85h26.67Z" fill="#98c8db"/><path d="M890.76,1639.27l23.14,37L946.54,1689a8.84,8.84,0,0,1,5.15,8v25.25h32.16v-25.25a8.85,8.85,0,0,0-5.16-8l-32.64-12.75-20.66-32.42a9.89,9.89,0,0,0-8.34-4.57Z" fill="#59221d"/><path d="M786,1675.86h15.16a3.46,3.46,0,0,0,3.71-3.13v-22.5a3.46,3.46,0,0,0-3.71-3.12h-9.09a3.63,3.63,0,0,0-3.62,2.43l-6.06,22.5C781.88,1674,783.64,1675.86,786,1675.86Z" fill="#98c8db"/></g><g id="TRUCK"><rect x="2523.59" y="1929.58" width="72.17" height="170.17" fill="#59221d"/><circle cx="2497.56" cy="2119.93" r="17.69" fill="#59221d"/><rect x="2595.29" y="1932.26" width="451.03" height="163.81" fill="#f3b304" stroke="#59221d" stroke-miterlimit="10" stroke-width="5"/><path d="M2677.75,2106.53v12.06H2470.33a6.54,6.54,0,0,1-6.55-6.54V2008.56a19.06,19.06,0,0,1,19.06-19.06H2567a7.74,7.74,0,0,1,7.74,7.73v94.67h36.14a24.44,24.44,0,0,1,19.65-9.87h22.73A24.5,24.5,0,0,1,2677.75,2106.53Z" fill="#fff"/><path d="M2564.25,2003.78v38.71h-30a8.89,8.89,0,0,1-8.89-8.89v-20.92a8.9,8.9,0,0,1,8.89-8.9Z" fill="#f3b304"/><circle cx="2908.02" cy="2117.43" r="17.68" fill="#59221d" stroke="#59221d" stroke-miterlimit="10" stroke-width="5"/><circle cx="2913.94" cy="2117.43" r="17.68" fill="#fff" stroke="#59221d" stroke-miterlimit="10" stroke-width="5"/><circle cx="2968.68" cy="2117.43" r="17.68" fill="#59221d" stroke="#59221d" stroke-miterlimit="10" stroke-width="5"/><circle cx="2976.08" cy="2117.43" r="17.68" fill="#fff" stroke="#59221d" stroke-miterlimit="10" stroke-width="5"/><path d="M2534.81,2090.47h15.36a20.44,20.44,0,0,1,20.44,20.44v7.68a0,0,0,0,1,0,0h-56.23a0,0,0,0,1,0,0v-7.68A20.44,20.44,0,0,1,2534.81,2090.47Z" fill="#59221d"/><path d="M2634.21,2090.47h15.36a20.44,20.44,0,0,1,20.44,20.44v7.68a0,0,0,0,1,0,0h-56.23a0,0,0,0,1,0,0v-7.68A20.44,20.44,0,0,1,2634.21,2090.47Z" fill="#59221d"/><circle cx="2641.89" cy="2118.68" r="16.44" fill="#fff" stroke="#59221d" stroke-miterlimit="10" stroke-width="5"/><circle cx="2542.49" cy="2118.68" r="16.44" fill="#fff" stroke="#59221d" stroke-miterlimit="10" stroke-width="5"/><circle cx="3004.98" cy="1997.66" r="7.01" fill="#fff"/><circle cx="2680.29" cy="1997.66" r="7.01" fill="#fff"/><circle cx="2633.9" cy="1997.66" r="7.01" fill="#fff"/><circle cx="2726.67" cy="1997.66" r="7.01" fill="#fff"/><circle cx="2773.06" cy="1997.66" r="7.01" fill="#fff"/><circle cx="2819.44" cy="1997.66" r="7.01" fill="#fff"/><circle cx="2865.82" cy="1997.66" r="7.01" fill="#fff"/><circle cx="2912.21" cy="1997.66" r="7.01" fill="#fff"/><circle cx="2958.59" cy="1997.66" r="7.01" fill="#fff"/><circle cx="3004.98" cy="1966.95" r="7.01" fill="#fff"/><circle cx="2680.29" cy="1966.95" r="7.01" fill="#fff"/><circle cx="2633.9" cy="1966.95" r="7.01" fill="#fff"/><circle cx="2726.67" cy="1966.95" r="7.01" fill="#fff"/><circle cx="2773.06" cy="1966.95" r="7.01" fill="#fff"/><circle cx="2819.44" cy="1966.95" r="7.01" fill="#fff"/><circle cx="2865.82" cy="1966.95" r="7.01" fill="#fff"/><circle cx="2912.21" cy="1966.95" r="7.01" fill="#fff"/><circle cx="2958.59" cy="1966.95" r="7.01" fill="#fff"/><circle cx="2680.29" cy="2028.36" r="7.01" fill="#fff"/><circle cx="2633.9" cy="2028.36" r="7.01" fill="#fff"/><circle cx="2726.67" cy="2028.36" r="7.01" fill="#fff"/><circle cx="2773.06" cy="2028.36" r="7.01" fill="#fff"/><circle cx="2819.44" cy="2028.36" r="7.01" fill="#fff"/><circle cx="2865.82" cy="2028.36" r="7.01" fill="#fff"/><circle cx="2912.21" cy="2028.36" r="7.01" fill="#fff"/><circle cx="2958.59" cy="2028.36" r="7.01" fill="#fff"/><circle cx="3004.98" cy="2028.36" r="7.01" fill="#fff"/><circle cx="2633.9" cy="2059.07" r="7.01" fill="#fff"/><circle cx="2680.29" cy="2059.07" r="7.01" fill="#fff"/><circle cx="2726.67" cy="2059.07" r="7.01" fill="#fff"/><circle cx="2773.06" cy="2059.07" r="7.01" fill="#fff"/><circle cx="2819.44" cy="2059.07" r="7.01" fill="#fff"/><circle cx="2865.82" cy="2059.07" r="7.01" fill="#fff"/><circle cx="2912.21" cy="2059.07" r="7.01" fill="#fff"/><circle cx="2958.59" cy="2059.07" r="7.01" fill="#fff"/><circle cx="3004.98" cy="2059.07" r="7.01" fill="#fff"/></g><g id="SAILBOAT"><polygon points="1478.38 991.92 1539.31 1103.33 1478.38 1133.49 1478.38 991.92" fill="#fff"/><line x1="1475.55" y1="994.5" x2="1475.55" y2="1150.12" fill="none" stroke="#59221d" stroke-linecap="round" stroke-miterlimit="10" stroke-width="5"/><line x1="1506.78" y1="1150.12" x2="1449" y2="1150.12" fill="none" stroke="#59221d" stroke-linecap="round" stroke-miterlimit="10" stroke-width="5"/><path d="M1387.14,1160.56h0a18.45,18.45,0,0,1,26.07,0l.13.13a18.42,18.42,0,0,0,26.06,0l.38-.38a18.42,18.42,0,0,1,26.06,0l.38.38a18.43,18.43,0,0,0,26.07,0l.25-.25a18.42,18.42,0,0,1,26.06,0l.25.25c7.2,7.2,18.87,8.35,26.07,1.15" fill="none" stroke="#fff" stroke-linecap="round" stroke-miterlimit="10" stroke-width="5"/><path d="M1413.21,1184.36l.13.12a18.42,18.42,0,0,0,26.06,0l.38-.37a18.42,18.42,0,0,1,26.06,0l.38.37a18.43,18.43,0,0,0,26.07,0l.25-.25a18.44,18.44,0,0,1,26.06,0" fill="none" stroke="#fff" stroke-linecap="round" stroke-miterlimit="10" stroke-width="5"/></g><g id="BARGE"><path d="M1970.16,450H1614.35A77,77,0,0,1,1561.42,429l-43-40.69h513.52A61.76,61.76,0,0,1,1970.16,450Z" fill="#59221d"/><polyline points="1539.61 404.6 2027.01 404.6 2027.01 404.6" fill="none" stroke="#fff" stroke-linecap="round" stroke-miterlimit="10" stroke-width="4"/><path d="M1962.85,356.39h69.06a0,0,0,0,1,0,0v31.88a0,0,0,0,1,0,0h-78.37a0,0,0,0,1,0,0V365.7A9.31,9.31,0,0,1,1962.85,356.39Z" fill="#59221d"/><rect x="1574.36" y="340.6" width="112.67" height="47.67" fill="#fff"/><rect x="1686.31" y="340.6" width="112.67" height="47.67" fill="#f3b304"/><rect x="1798.98" y="340.6" width="112.67" height="47.67" fill="#fff"/><rect x="1686.31" y="292.94" width="112.67" height="47.67" fill="#59221d"/><rect x="1798.98" y="292.94" width="112.67" height="47.67" fill="#f3b304"/><path d="M1597.61,454.68a23.18,23.18,0,0,1,32.78,0h0a23.18,23.18,0,0,0,32.79,0h0a23.18,23.18,0,0,1,32.78,0l.16.16a23.19,23.19,0,0,0,32.79,0l.47-.47a23.18,23.18,0,0,1,32.79,0l.47.47a23.19,23.19,0,0,0,32.79,0l.31-.31a23.18,23.18,0,0,1,32.79,0l.31.31a23.19,23.19,0,0,0,32.79,0l.16-.16a23.18,23.18,0,0,1,32.78,0" fill="none" stroke="#fff" stroke-linecap="round" stroke-miterlimit="10" stroke-width="5"/><path d="M1894.76,454.84a23.19,23.19,0,0,0,32.79,0l.16-.16a23.18,23.18,0,0,1,32.78,0" fill="none" stroke="#fff" stroke-linecap="round" stroke-miterlimit="10" stroke-width="5"/><path d="M1696,484.61l.16.16a23.19,23.19,0,0,0,32.79,0l.47-.47a23.18,23.18,0,0,1,32.79,0l.47.47a23.19,23.19,0,0,0,32.79,0l.31-.31a23.18,23.18,0,0,1,32.79,0l.31.31a23.19,23.19,0,0,0,32.79,0l.16-.16a23.18,23.18,0,0,1,32.78,0" fill="none" stroke="#fff" stroke-linecap="round" stroke-miterlimit="10" stroke-width="5"/></g><g id="TRACTOR"><circle cx="384.26" cy="630.84" r="37.42" fill="none" stroke="#59221d" stroke-linecap="round" stroke-miterlimit="10" stroke-width="5"/><circle cx="384.26" cy="630.84" r="25.97" fill="#98c8db"/><circle cx="482.6" cy="649.55" r="18.71" fill="none" stroke="#59221d" stroke-linecap="round" stroke-miterlimit="10" stroke-width="5"/><circle cx="482.6" cy="649.55" r="11.54" fill="#98c8db"/><path d="M366.74,585.29V562.73a10.67,10.67,0,0,1,10.67-10.67h52a10.66,10.66,0,0,1,8.93,4.84l31.67,48.5h28.56A12.35,12.35,0,0,1,511,617.75V634" fill="none" stroke="#59221d" stroke-linecap="round" stroke-miterlimit="10" stroke-width="5"/><line x1="453.23" y1="645.53" x2="429.67" y2="645.53" fill="none" stroke="#59221d" stroke-linecap="round" stroke-miterlimit="10" stroke-width="5"/><polygon points="439.87 582.25 381.85 582.25 381.85 564.76 429.67 564.76 439.87 582.25" fill="#59221d"/><line x1="510.63" y1="645.53" x2="527.5" y2="645.53" fill="none" stroke="#59221d" stroke-linecap="round" stroke-miterlimit="10" stroke-width="5"/></g></g></g></g></svg>